<?xml version="1.0" standalone="no"?>
<!DOCTYPE svg PUBLIC "-//W3C//DTD SVG 20010904//EN"
 "http://www.w3.org/TR/2001/REC-SVG-20010904/DTD/svg10.dtd">
<svg version="1.0" xmlns="http://www.w3.org/2000/svg"
 width="600.000000pt" height="600.000000pt" viewBox="0 0 600.000000 600.000000"
 preserveAspectRatio="xMidYMid meet">

<g transform="translate(0.000000,600.000000) scale(0.100000,-0.100000)"
fill="#000000" stroke="none">
<path d="M2935 5667 c-18 -11 -39 -21 -130 -57 -11 -5 -119 -50 -240 -100
-121 -51 -231 -96 -245 -100 -14 -4 -50 -19 -80 -32 -30 -14 -98 -42 -150 -63
-52 -21 -117 -48 -145 -60 -27 -13 -86 -37 -130 -55 -110 -44 -126 -50 -160
-66 -16 -7 -48 -20 -70 -29 -117 -47 -131 -57 -119 -90 3 -8 30 -29 60 -46 30
-17 54 -35 54 -40 0 -5 7 -9 15 -9 14 0 106 -49 227 -121 66 -39 62 -18 48
-244 -5 -83 -16 -177 -25 -210 -25 -89 -46 -176 -51 -210 -2 -16 -11 -64 -19
-105 -21 -111 -38 -447 -25 -490 5 -19 10 -55 10 -80 0 -25 5 -61 10 -80 12
-39 27 -211 39 -425 11 -210 -8 -512 -38 -605 -7 -19 -17 -51 -23 -70 -35
-115 -90 -185 -153 -194 -79 -12 -231 -69 -300 -113 -202 -131 -368 -383 -488
-738 -26 -77 -30 -105 -31 -200 -1 -153 31 -233 131 -326 43 -41 166 -119 186
-119 7 0 17 -4 23 -10 14 -14 198 -81 269 -99 22 -5 76 -18 120 -29 161 -41
458 -88 645 -103 569 -45 1468 -35 1880 21 77 10 122 18 315 51 132 23 306 68
410 106 22 9 49 19 60 23 11 4 58 26 105 48 152 74 257 178 290 290 8 27 14
89 13 147 0 82 -5 114 -28 180 -185 539 -413 792 -777 865 -46 9 -63 18 -89
48 -61 69 -103 192 -131 377 -25 170 -14 613 22 840 29 189 33 271 21 455 -12
187 -19 243 -48 380 -16 75 -70 261 -84 290 -38 77 -59 148 -59 200 l0 58 128
74 c70 41 134 77 142 81 8 3 58 32 110 64 79 48 95 62 95 83 0 23 -15 31 -175
99 -96 40 -189 80 -207 87 -17 8 -34 14 -38 14 -3 0 -32 12 -63 26 -31 15 -66
30 -77 34 -141 56 -188 75 -233 96 -29 13 -56 24 -60 24 -7 0 -180 72 -274
113 -18 8 -110 47 -203 86 -172 72 -222 83 -260 58z m-485 -1558 c30 -11 65
-23 78 -26 12 -3 25 -9 28 -14 3 -5 12 -9 21 -9 8 0 29 -6 46 -14 18 -8 66
-26 107 -41 41 -14 91 -33 110 -40 101 -39 123 -45 157 -45 19 0 52 5 72 11
39 11 0 29 644 -301 l146 -75 49 48 c57 56 77 57 105 10 27 -48 26 -215 -3
-298 -27 -78 -66 -134 -99 -141 -45 -9 -55 -20 -77 -80 -28 -78 -112 -238
-168 -322 -77 -114 -241 -285 -316 -327 -144 -82 -222 -105 -346 -105 -99 0
-212 24 -238 50 -6 6 -16 10 -24 10 -22 0 -148 87 -214 148 -141 131 -303 384
-363 570 -15 45 -21 52 -44 52 -102 0 -192 293 -132 426 14 32 28 45 54 53 30
10 36 18 46 59 16 66 42 153 51 177 48 117 102 197 162 242 32 23 45 22 148
-18z m27 -1747 c137 -117 265 -180 429 -211 76 -14 122 -14 198 0 173 33 261
79 484 253 20 16 25 17 33 5 5 -8 9 -22 9 -32 0 -53 72 -139 150 -180 32 -17
46 -30 48 -48 5 -39 -55 -116 -147 -190 -212 -172 -531 -270 -778 -239 -102
12 -205 35 -235 51 -10 5 -23 9 -30 9 -18 0 -196 89 -248 123 -123 82 -238
214 -223 254 3 7 30 26 60 40 67 33 129 101 143 157 16 60 18 66 29 66 5 0 40
-26 78 -58z"/>
<path d="M1580 4862 c0 -7 -14 -26 -32 -42 -40 -37 -44 -87 -10 -123 l23 -24
-11 -213 c-6 -118 -14 -218 -17 -223 -6 -10 -26 -341 -26 -442 0 -62 5 -84 45
-194 24 -65 40 -81 46 -46 2 11 7 29 11 40 48 121 52 149 41 347 -5 101 -12
192 -15 203 -3 11 -9 103 -15 205 -6 102 -13 215 -16 251 -6 61 -5 67 20 94
30 33 35 85 9 106 -9 8 -24 28 -35 44 -10 17 -18 24 -18 17z"/>
</g>
</svg>
