<?xml version="1.0" standalone="no"?>
<!DOCTYPE svg PUBLIC "-//W3C//DTD SVG 20010904//EN"
 "http://www.w3.org/TR/2001/REC-SVG-20010904/DTD/svg10.dtd">
<svg version="1.0" xmlns="http://www.w3.org/2000/svg"
 width="900.000000pt" height="900.000000pt" viewBox="0 0 900.000000 900.000000"
 preserveAspectRatio="xMidYMid meet">

<g transform="translate(0.000000,900.000000) scale(0.100000,-0.100000)"
fill="#000000" stroke="none">
<path d="M3431 8629 c-29 -5 -84 -19 -122 -30 l-68 -21 -88 21 c-247 57 -448
29 -705 -100 -401 -201 -650 -492 -797 -934 -126 -378 -147 -901 -56 -1382 39
-203 136 -497 223 -669 29 -57 45 -108 57 -175 58 -327 176 -559 399 -782 103
-103 292 -247 324 -247 16 0 39 17 69 50 65 73 290 187 563 286 96 35 239 107
252 128 13 19 9 113 -8 192 -16 78 -107 349 -125 370 -9 11 -213 89 -339 129
-124 40 -148 50 -215 93 -38 24 -111 85 -160 136 -63 63 -108 100 -149 120
-33 16 -77 45 -99 65 -45 41 -116 131 -141 179 -17 33 -17 35 15 125 17 51 35
96 39 100 4 4 16 -16 28 -45 24 -62 27 -40 7 52 -15 69 -15 69 40 205 7 17 27
68 45 115 17 47 36 94 40 105 5 11 24 60 42 110 28 72 39 91 59 96 13 4 108 7
212 8 176 1 187 2 187 20 0 13 -14 24 -42 36 -107 43 -215 56 -303 35 -22 -5
-41 -7 -43 -6 -1 2 4 23 12 47 8 24 24 78 37 119 23 77 68 182 159 375 28 61
61 130 73 155 31 67 113 198 157 250 55 66 129 104 205 106 41 1 81 10 124 29
59 25 73 27 160 23 77 -3 107 -9 153 -30 272 -126 573 -444 687 -728 16 -41
51 -122 77 -180 25 -58 56 -127 68 -155 26 -60 75 -155 80 -155 2 0 -3 28 -10
63 -18 85 -17 121 4 147 35 44 101 18 138 -52 8 -15 21 -59 29 -98 33 -155 7
-342 -61 -450 -14 -22 -24 -59 -28 -101 -11 -114 -58 -234 -140 -354 -22 -33
-96 -152 -164 -265 -93 -156 -122 -211 -117 -228 13 -51 97 -230 133 -281 58
-84 119 -97 283 -61 58 13 125 38 191 71 120 60 301 129 415 158 89 23 244 32
305 18 56 -13 61 5 48 161 -21 253 -80 539 -162 792 -61 185 -141 366 -242
544 -48 85 -83 163 -101 221 -81 269 -299 741 -422 915 -87 122 -265 302 -367
370 -139 93 -294 153 -475 184 -102 17 -300 20 -390 5z m-986 -4087 c28 -40
55 -82 61 -93 6 -11 24 -34 40 -52 22 -23 17 -21 -23 12 -29 23 -80 79 -113
124 -33 45 -64 87 -68 92 -14 18 -62 101 -62 108 0 14 118 -123 165 -191z"/>
<path d="M3899 7456 c-107 -28 -232 -136 -293 -254 -15 -29 -15 -33 -1 -38 17
-7 60 20 143 89 153 127 223 158 356 160 50 1 102 -2 116 -7 24 -7 24 -7 5 6
-54 38 -246 64 -326 44z"/>
<path d="M4271 7137 c-27 -17 -56 -21 -150 -24 -146 -4 -202 -15 -269 -54 -55
-31 -108 -100 -130 -169 -18 -56 -30 -148 -21 -162 7 -10 9 -10 9 2 0 25 55
132 90 175 44 55 62 64 38 17 -32 -63 -7 -131 64 -168 51 -27 119 -10 152 38
21 29 20 38 -2 38 -30 0 -45 45 -27 80 8 16 15 36 15 44 0 18 -30 36 -59 36
-12 0 -21 5 -21 10 0 17 184 12 232 -7 24 -9 44 -17 46 -19 2 -1 -4 -30 -14
-63 -9 -34 -15 -63 -13 -65 2 -2 31 25 64 60 33 35 58 65 55 65 -3 1 -13 1
-22 0 -23 -3 -22 1 2 41 22 37 24 57 7 109 l-12 36 -34 -20z"/>
<path d="M4130 6788 l-45 -40 43 23 c50 27 83 59 61 59 -8 -1 -34 -19 -59 -42z"/>
<path d="M2814 6710 c-64 -9 -149 -47 -194 -87 -51 -44 -119 -85 -165 -99 -23
-7 -39 -17 -37 -25 11 -47 34 -79 66 -94 34 -16 35 -19 21 -35 -21 -24 -20
-26 23 -25 20 0 52 -3 70 -7 21 -5 31 -4 27 2 -3 6 -14 10 -23 10 -14 0 -17
10 -17 50 0 47 4 53 53 102 28 29 69 63 91 75 l38 22 -18 -37 c-25 -49 -24
-96 4 -133 55 -75 146 -80 204 -10 28 33 29 49 2 53 -39 5 -46 32 -21 76 20
37 21 40 4 54 -9 9 -24 18 -32 21 -8 3 -1 6 15 6 44 1 193 -62 210 -89 3 -5
11 -10 16 -10 19 0 -53 81 -105 119 -50 36 -136 72 -166 70 -8 -1 -38 -5 -66
-9z"/>
<path d="M2730 6320 c-19 -12 42 -12 80 0 21 7 17 8 -20 9 -25 0 -52 -4 -60
-9z"/>
<path d="M4130 6105 c-35 -30 -67 -55 -70 -55 -4 0 -13 -19 -19 -42 -7 -24
-18 -49 -23 -55 -7 -9 -7 -13 0 -13 11 0 72 84 72 99 0 4 25 32 56 61 30 29
53 54 51 56 -2 2 -32 -21 -67 -51z"/>
<path d="M3225 5799 c-49 -6 -49 -6 17 -7 39 -1 99 -12 142 -26 41 -13 78 -21
81 -18 3 3 -18 18 -46 34 -54 29 -77 31 -194 17z"/>
<path d="M4754 4638 l-19 -23 23 19 c12 11 22 21 22 23 0 8 -8 2 -26 -19z"/>
<path d="M4817 4632 c-9 -10 -17 -31 -17 -46 0 -15 -4 -25 -10 -21 -5 3 -7 13
-3 23 3 9 -3 6 -13 -8 -10 -14 -25 -32 -34 -40 -11 -10 -11 -12 -1 -5 10 7 16
6 18 -2 3 -8 21 -13 44 -13 39 0 39 0 39 41 0 24 4 38 10 34 13 -8 12 5 -3 33
-13 22 -14 22 -30 4z m17 -23 c-3 -5 -10 -7 -15 -3 -5 3 -7 10 -3 15 3 5 10 7
15 3 5 -3 7 -10 3 -15z"/>
<path d="M4677 4554 c-27 -30 -45 -54 -40 -53 10 1 97 98 92 103 -2 2 -26 -21
-52 -50z"/>
<path d="M4883 4585 c0 -8 4 -12 9 -9 4 3 8 0 8 -7 0 -7 2 -10 5 -7 7 7 -5 38
-14 38 -4 0 -8 -7 -8 -15z"/>
<path d="M4320 4530 c0 -5 7 -10 16 -10 8 0 12 5 9 10 -3 6 -10 10 -16 10 -5
0 -9 -4 -9 -10z"/>
<path d="M4360 4516 c0 -6 89 -66 97 -66 8 0 -53 47 -79 61 -10 5 -18 8 -18 5z"/>
<path d="M4303 4498 c-6 -7 -16 -24 -22 -38 -12 -24 -12 -24 4 -5 20 24 37 55
32 55 -3 0 -9 -6 -14 -12z"/>
<path d="M4705 4470 c-14 -16 -20 -17 -27 -8 -5 9 -8 10 -8 1 0 -23 21 -25 41
-2 10 12 19 24 19 26 0 7 -8 2 -25 -17z"/>
<path d="M4586 4452 l-19 -27 24 22 c12 12 21 24 18 27 -2 2 -13 -8 -23 -22z"/>
<path d="M4992 4468 c-7 -7 -12 -15 -12 -19 0 -9 27 -5 37 6 5 4 2 5 -6 0 -11
-6 -13 -4 -8 8 8 20 5 21 -11 5z"/>
<path d="M4303 4393 c-22 -38 -81 -140 -132 -228 -51 -88 -96 -167 -101 -175
-5 -8 -32 -52 -60 -98 -27 -46 -50 -86 -50 -88 0 -2 -18 -34 -40 -70 -22 -36
-40 -67 -40 -69 0 -4 -84 -151 -100 -175 -6 -8 -13 -22 -17 -30 -3 -8 -21 -37
-38 -65 -17 -27 -34 -57 -39 -65 -4 -8 -12 -24 -19 -35 -7 -11 -34 -58 -61
-105 -67 -117 -68 -119 -205 -354 -67 -115 -141 -243 -163 -285 -23 -42 -48
-86 -56 -98 -13 -21 -13 -23 3 -23 28 0 82 -38 103 -73 11 -19 41 -44 73 -60
30 -16 71 -38 91 -50 93 -55 121 -67 149 -67 22 0 32 -6 36 -19 2 -10 14 -23
26 -29 16 -7 30 -34 51 -103 17 -52 30 -101 31 -109 0 -8 4 -36 9 -62 7 -39
13 -48 38 -59 27 -11 36 -10 67 7 29 15 37 26 39 53 5 53 -5 81 -31 81 -12 0
-30 6 -39 14 -22 16 -41 67 -30 78 12 12 195 65 327 94 76 17 169 28 300 35
215 12 278 9 419 -22 95 -20 102 -20 160 -4 82 22 200 64 320 114 54 23 102
41 107 41 11 0 215 92 369 167 123 59 225 115 410 223 165 96 316 178 463 250
l128 62 -67 44 c-37 24 -72 44 -78 44 -6 0 -3 -5 7 -11 16 -9 25 -39 11 -39
-7 0 -111 62 -209 124 -38 24 -106 66 -150 92 -44 26 -101 63 -127 81 -26 18
-50 33 -54 33 -3 0 -29 15 -57 34 -48 30 -89 56 -255 155 -31 19 -59 37 -62
41 -3 3 -30 21 -60 38 -30 18 -64 38 -74 45 -91 57 -126 77 -134 77 -5 0 -15
7 -22 15 -7 8 -37 30 -67 47 -30 18 -65 40 -78 48 -45 29 -118 70 -125 70 -4
0 -14 7 -21 16 -7 9 -22 20 -34 25 -32 15 -63 34 -82 51 -10 8 -25 17 -34 21
-9 3 -48 26 -88 51 -39 25 -73 46 -75 46 -3 0 -31 18 -64 40 -33 21 -77 49
-98 60 -22 12 -65 38 -96 58 -91 58 -259 162 -262 162 -2 0 -22 -30 -43 -67z"/>
<path d="M4473 4444 c3 -6 34 -28 68 -49 49 -30 63 -35 71 -24 7 11 8 10 6 -4
-3 -18 66 -67 78 -55 12 13 -17 48 -40 48 -13 0 -27 7 -30 16 -8 21 -8 26 2
20 4 -2 9 5 9 17 2 19 0 18 -22 -8 -20 -25 -27 -28 -42 -18 -10 6 -17 16 -15
23 1 6 -2 9 -7 6 -5 -4 -26 4 -47 16 -21 12 -35 18 -31 12z"/>
<path d="M4249 4408 c-6 -13 -23 -43 -37 -68 -14 -25 -21 -40 -15 -35 15 14
76 125 69 125 -3 0 -11 -10 -17 -22z"/>
<path d="M4768 4353 c7 -3 16 -2 19 1 4 3 -2 6 -13 5 -11 0 -14 -3 -6 -6z"/>
<path d="M5123 4337 c0 -8 6 -14 14 -14 9 0 10 4 2 14 -6 7 -12 13 -14 13 -1
0 -2 -6 -2 -13z"/>
<path d="M4720 4320 c-14 -10 -23 -20 -20 -22 18 -13 90 -58 94 -58 2 0 34
-19 70 -42 36 -24 100 -65 143 -92 43 -27 91 -57 106 -68 16 -11 35 -17 43
-14 7 3 13 0 11 -6 -1 -6 10 -18 24 -27 14 -9 37 -23 50 -32 55 -38 240 -149
248 -149 5 0 14 -7 21 -15 7 -8 37 -30 67 -47 30 -18 65 -40 78 -48 13 -8 49
-30 81 -49 33 -19 61 -37 64 -41 8 -10 139 -90 147 -90 4 0 -7 10 -24 23 -18
13 -62 57 -100 97 -37 41 -88 92 -112 115 -24 22 -53 48 -63 58 -10 9 -25 17
-34 17 -8 0 -13 4 -10 9 3 4 -6 13 -19 19 -14 6 -23 17 -21 24 1 7 1 10 -1 6
-7 -12 -100 33 -136 65 -43 39 -72 57 -92 57 -8 0 -15 7 -15 15 0 8 -9 15 -20
15 -11 0 -20 6 -20 13 0 14 -40 37 -65 37 -7 0 -15 5 -17 11 -2 5 -31 10 -65
10 -54 1 -60 3 -56 19 6 22 -18 50 -41 50 -9 0 -16 5 -16 10 0 6 -11 -1 -25
-15 -31 -30 -50 -34 -35 -6 10 20 4 50 -14 64 -8 6 -7 10 2 14 17 7 15 33 -3
33 -9 0 -15 -10 -16 -22 -1 -18 -2 -19 -6 -5 -7 28 -37 16 -44 -18 -4 -17 -7
-22 -8 -12 0 10 -5 16 -10 13 -5 -4 -7 2 -4 12 3 12 -4 22 -22 30 -34 16 -35
16 -36 -10 -1 -22 -1 -22 -8 2 -4 14 -4 27 1 28 4 2 8 12 8 23 0 32 -27 21
-35 -13 -4 -18 -9 -27 -12 -20 -2 6 -12 12 -20 12 -11 0 -8 6 8 20 31 25 12
26 -21 0z m200 -120 c0 -5 -5 -10 -11 -10 -5 0 -7 5 -4 10 3 6 8 10 11 10 2 0
4 -4 4 -10z"/>
<path d="M4165 4260 c-9 -16 -13 -30 -11 -30 3 0 12 14 21 30 9 17 13 30 11
30 -3 0 -12 -13 -21 -30z"/>
<path d="M4126 4193 c-6 -14 -5 -15 5 -6 7 7 10 15 7 18 -3 3 -9 -2 -12 -12z"/>
<path d="M5281 4174 c0 -11 3 -14 6 -6 3 7 2 16 -1 19 -3 4 -6 -2 -5 -13z"/>
<path d="M4100 4155 c-7 -9 -10 -18 -7 -21 3 -3 10 4 17 15 13 25 8 27 -10 6z"/>
<path d="M4060 4083 c-22 -40 -48 -85 -83 -142 -11 -19 -16 -32 -10 -28 5 4
34 48 63 99 66 116 62 108 56 108 -3 0 -15 -17 -26 -37z"/>
<path d="M5360 4090 c0 -5 5 -10 10 -10 6 0 10 5 10 10 0 6 -4 10 -10 10 -5 0
-10 -4 -10 -10z"/>
<path d="M3921 3844 c-40 -75 -35 -80 7 -7 18 31 31 58 28 60 -2 2 -18 -22
-35 -53z"/>
<path d="M3873 3758 c-15 -18 -35 -58 -29 -58 2 0 13 16 25 35 20 35 22 46 4
23z"/>
<path d="M3820 3670 c-6 -11 -8 -20 -6 -20 3 0 10 9 16 20 6 11 8 20 6 20 -3
0 -10 -9 -16 -20z"/>
<path d="M3795 3629 c-4 -6 -5 -12 -2 -15 2 -3 7 2 10 11 7 17 1 20 -8 4z"/>
<path d="M3750 3550 c-6 -11 -8 -20 -6 -20 3 0 10 9 16 20 6 11 8 20 6 20 -3
0 -10 -9 -16 -20z"/>
<path d="M3700 3473 c-19 -27 -33 -52 -32 -56 1 -4 -9 -28 -24 -52 -14 -25
-24 -45 -21 -45 3 0 20 26 38 58 18 31 43 76 57 100 32 56 24 53 -18 -5z"/>
<path d="M5974 3501 c11 -11 23 -21 28 -21 14 0 -1 19 -25 31 -22 12 -22 12
-3 -10z"/>
<path d="M6031 3464 c7 -9 22 -20 34 -25 21 -10 37 -20 100 -60 59 -37 65 -41
65 -35 0 3 -33 26 -72 52 -40 25 -85 55 -100 65 -33 23 -45 24 -27 3z"/>
<path d="M3596 3352 c-36 -42 -36 -44 -7 -17 28 25 58 66 49 65 -2 -1 -21 -22
-42 -48z"/>
<path d="M6272 3314 c10 -10 20 -15 24 -12 3 4 -5 12 -18 18 -22 12 -22 12 -6
-6z"/>
<path d="M6314 3291 c4 -6 16 -16 28 -22 15 -8 18 -8 14 0 -4 6 -16 16 -28 22
-15 8 -18 8 -14 0z"/>
<path d="M6379 3246 c7 -9 19 -16 26 -16 7 0 18 -7 25 -15 7 -8 17 -15 22 -15
18 0 -4 21 -45 42 -33 16 -39 17 -28 4z"/>
<path d="M3540 3189 c0 -5 5 -7 10 -4 6 3 10 8 10 11 0 2 -4 4 -10 4 -5 0 -10
-5 -10 -11z"/>
<path d="M6480 3185 c0 -2 10 -10 23 -16 20 -11 21 -11 8 4 -13 16 -31 23 -31
12z"/>
<path d="M3399 3133 l-24 -28 28 24 c25 23 32 31 24 31 -2 0 -14 -12 -28 -27z"/>
<path d="M6530 3156 c0 -5 98 -66 106 -66 4 0 -5 9 -19 20 -14 11 -30 20 -35
20 -5 0 -15 7 -22 15 -11 14 -30 21 -30 11z"/>
<path d="M3487 3106 c-4 -9 -14 -13 -29 -9 -22 4 -22 4 -4 -11 23 -19 14 -21
-17 -5 -22 11 -22 11 1 -14 13 -14 19 -28 14 -31 -6 -3 -13 2 -16 11 -6 15 -8
15 -16 3 -8 -12 -10 -12 -10 -1 0 7 -33 -17 -72 -55 -40 -38 -72 -71 -71 -74
1 -3 -7 -7 -18 -7 -10 -1 -19 3 -19 9 0 6 -2 9 -5 6 -8 -8 6 -39 15 -33 4 3
11 -2 14 -11 4 -9 10 -14 14 -10 7 8 9 14 11 46 0 11 7 20 14 20 7 0 25 14 41
32 45 52 86 44 57 -11 -5 -9 -6 -23 -2 -30 6 -9 21 9 46 56 21 37 47 83 57
101 10 17 14 32 9 32 -5 0 -11 -6 -14 -14z m-87 -80 c0 -2 -7 -7 -16 -10 -8
-3 -12 -2 -9 4 6 10 25 14 25 6z"/>
<path d="M3319 3044 c-13 -14 -17 -23 -9 -19 13 5 46 45 37 45 -2 0 -14 -11
-28 -26z"/>
<path d="M3244 2958 l-19 -23 23 19 c21 18 27 26 19 26 -2 0 -12 -10 -23 -22z"/>
<path d="M3315 2820 c4 -6 -8 -35 -25 -65 -43 -75 -31 -70 14 6 41 69 41 69
20 69 -8 0 -12 -5 -9 -10z"/>
<path d="M3217 2628 c-89 -161 -103 -198 -75 -198 6 0 9 3 5 6 -9 10 21 83 69
167 25 43 43 81 41 84 -3 2 -21 -24 -40 -59z"/>
<path d="M6924 2235 c-18 -8 -96 -34 -174 -58 -137 -43 -143 -46 -157 -78 -17
-40 -59 -79 -128 -118 -140 -79 -245 -147 -245 -160 0 -5 10 -12 23 -15 71
-21 131 -35 202 -45 44 -7 92 -14 108 -16 15 -3 27 -1 27 4 0 4 13 23 29 42
283 328 346 404 346 418 1 9 4 22 8 29 10 15 1 14 -39 -3z"/>
<path d="M4042 1946 l-62 -11 65 -34 c74 -38 93 -37 145 8 29 25 33 32 20 41
-19 12 -86 11 -168 -4z"/>
<path d="M5795 1900 c-38 -11 -144 -38 -235 -60 -181 -45 -381 -120 -469 -176
l-56 -36 95 6 c231 16 502 44 540 58 16 5 48 33 70 61 22 29 43 57 48 62 4 6
27 31 51 58 24 26 40 47 35 46 -5 0 -40 -9 -79 -19z"/>
<path d="M5585 1135 c-88 -13 -205 -31 -260 -40 -55 -10 -115 -20 -132 -22
-18 -3 -33 -8 -33 -12 0 -11 114 -106 123 -103 5 1 6 -1 3 -6 -7 -12 271 -285
283 -278 5 4 13 1 17 -5 4 -8 3 -9 -4 -5 -7 4 -12 3 -12 -2 0 -14 26 -33 41
-30 16 3 75 79 72 90 -2 5 4 8 12 8 9 0 20 10 25 23 5 12 9 19 9 15 1 -3 23
16 49 44 l49 51 69 -38 c38 -21 85 -49 104 -62 55 -37 51 -41 138 117 60 109
71 136 77 175 10 71 1 75 -186 81 -90 3 -180 9 -199 14 -45 13 -54 12 -245
-15z m-305 -156 c0 -5 -4 -9 -8 -9 -5 0 -9 7 -9 15 0 8 4 12 9 9 4 -3 8 -9 8
-15z m124 -135 c3 -8 2 -12 -4 -9 -6 3 -10 10 -10 16 0 14 7 11 14 -7z"/>
<path d="M3472 20 c-12 -19 -10 -20 45 -20 l58 0 -44 20 c-24 11 -44 20 -45
20 -1 0 -7 -9 -14 -20z"/>
</g>
</svg>
