<?xml version="1.0" standalone="no"?>
<!DOCTYPE svg PUBLIC "-//W3C//DTD SVG 20010904//EN"
 "http://www.w3.org/TR/2001/REC-SVG-20010904/DTD/svg10.dtd">
<svg version="1.0" xmlns="http://www.w3.org/2000/svg"
 width="596.000000pt" height="640.000000pt" viewBox="0 0 596.000000 640.000000"
 preserveAspectRatio="xMidYMid meet">

<g transform="translate(0.000000,640.000000) scale(0.100000,-0.100000)"
fill="#000000" stroke="none">
<path d="M3565 6086 c-5 -3 -22 -7 -37 -10 -25 -6 -40 -34 -20 -37 49 -7 77
-7 90 0 11 6 29 4 54 -6 21 -8 45 -13 53 -10 8 4 17 2 20 -2 7 -13 -31 -22
-120 -28 -44 -3 -88 -9 -97 -14 -9 -5 -27 -9 -41 -9 -28 0 -37 -7 -31 -24 3
-8 37 -10 117 -8 109 4 111 3 94 -15 -14 -14 -33 -18 -85 -18 -48 0 -76 -5
-95 -17 -14 -10 -38 -18 -52 -18 -14 0 -34 -4 -45 -10 -11 -5 -29 -14 -40 -20
-11 -5 -29 -10 -40 -10 -22 0 -27 -19 -9 -37 15 -15 -6 -27 -55 -30 -22 -2
-47 -10 -57 -19 -10 -9 -33 -19 -50 -23 -18 -4 -35 -13 -37 -21 -5 -13 -3 -13
11 -1 9 7 23 11 31 8 8 -3 20 1 27 9 10 13 14 13 29 -1 16 -14 22 -14 64 5 56
23 70 25 63 6 -4 -10 4 -11 41 -4 26 4 63 8 82 6 19 -1 45 4 57 10 14 8 24 9
28 2 10 -16 25 -1 25 26 0 24 -1 25 -69 28 -13 1 -26 7 -28 14 -3 8 10 12 46
12 27 0 53 5 56 10 3 6 24 10 46 10 31 0 39 -4 38 -17 0 -10 -3 -13 -5 -6 -6
14 -73 -26 -74 -43 0 -16 27 -37 34 -26 3 5 25 6 49 2 97 -14 144 6 134 58 -4
21 -3 22 10 10 8 -8 13 -23 13 -34 -1 -10 -2 -38 -2 -61 0 -28 -4 -41 -11 -36
-18 11 -121 12 -135 0 -10 -8 -15 -8 -21 1 -7 11 -64 6 -191 -18 -30 -6 -68
-11 -84 -10 -15 0 -34 -5 -42 -11 -7 -6 -18 -8 -24 -4 -5 3 -23 -3 -39 -14
-16 -12 -38 -21 -49 -21 -11 0 -35 -17 -53 -37 -23 -27 -39 -37 -55 -35 -16 2
-35 -9 -61 -35 -21 -21 -59 -54 -85 -72 -27 -19 -48 -39 -48 -46 0 -13 -62
-75 -74 -75 -11 0 -106 -78 -133 -110 -27 -30 -30 -50 -5 -27 10 9 36 27 59
39 22 13 65 42 96 66 31 23 69 48 84 54 15 7 64 39 108 72 44 32 90 62 103 67
13 5 39 21 57 35 35 26 88 45 137 48 14 0 30 4 34 9 4 4 21 7 37 7 16 0 43 6
60 14 40 18 152 43 237 52 67 7 95 11 95 14 0 1 12 3 26 4 21 1 25 -2 21 -17
-4 -14 0 -18 13 -16 25 6 83 124 96 197 13 70 4 92 -37 92 -12 0 -26 5 -30 11
-11 19 84 4 106 -16 28 -25 62 -11 58 23 -3 30 -38 45 -38 17 0 -9 -4 -13 -10
-10 -5 3 -10 16 -10 29 0 20 -34 47 -62 50 -4 1 -13 7 -19 14 -7 6 -19 12 -25
12 -7 0 -30 10 -51 22 -32 19 -55 23 -143 25 -58 1 -109 1 -115 -1z m255 -83
c0 -21 -14 -15 -26 11 -11 23 -10 24 7 13 11 -7 19 -17 19 -24z m-2 -145 c-3
-7 -18 -14 -34 -16 -28 -3 -28 -3 -9 12 24 19 48 21 43 4z m-411 -55 c3 -7
-14 -12 -47 -15 -57 -3 -66 7 -17 21 39 11 59 10 64 -6z"/>
<path d="M3445 6050 c-11 -4 -30 -10 -42 -15 -27 -9 -29 -18 -8 -35 11 -10 22
-6 54 17 55 38 53 55 -4 33z"/>
<path d="M3291 5979 c-24 -22 -23 -33 0 -24 17 6 43 45 31 45 -5 0 -18 -9 -31
-21z"/>
<path d="M4339 5974 c-8 -10 -8 -14 0 -14 6 0 11 -5 11 -11 0 -7 -8 -9 -22 -4
-13 4 -34 8 -48 10 -14 2 -29 4 -35 6 -19 5 -135 -54 -135 -68 0 -8 5 -23 10
-34 10 -18 7 -19 -39 -19 l-49 0 8 -32 c5 -18 12 -43 15 -54 8 -25 -11 -42
-28 -25 -6 6 -17 11 -23 11 -20 0 47 -61 82 -76 52 -22 106 -91 110 -142 3
-30 11 -50 27 -62 34 -28 35 2 2 46 -27 36 -28 57 -1 35 16 -14 41 -79 38 -98
-5 -22 20 -25 34 -4 8 12 19 21 25 21 15 0 10 -22 -8 -37 -14 -11 -12 -11 12
1 32 15 79 70 95 108 8 21 9 20 9 -11 1 -28 -7 -41 -41 -72 -36 -34 -40 -42
-31 -61 12 -28 11 -118 -1 -117 -5 0 -13 -5 -17 -13 -6 -8 -8 6 -6 37 1 28 6
53 11 57 9 6 -40 58 -56 58 -5 0 -17 -20 -28 -44 -10 -24 -23 -47 -28 -50 -12
-7 -26 29 -17 44 11 17 -7 11 -21 -7 -12 -16 -13 -16 -14 8 0 14 -11 39 -24
54 -21 24 -27 27 -40 16 -13 -11 -16 -11 -16 1 0 11 -7 14 -25 10 -16 -3 -25
0 -25 8 0 10 -3 10 -15 0 -19 -15 -73 -16 -88 -1 -6 6 -29 11 -51 11 l-40 0
21 22 c19 18 24 19 38 8 24 -20 29 -4 6 19 -12 12 -30 21 -41 21 -26 0 -25 8
3 30 12 10 18 22 14 27 -5 4 -67 -52 -138 -126 -71 -73 -129 -128 -129 -121 0
7 24 35 54 62 52 47 113 125 105 132 -9 8 -169 13 -164 5 3 -4 13 -6 23 -2 11
3 9 0 -5 -11 -18 -13 -27 -15 -44 -6 -16 9 -24 8 -40 -6 -11 -10 -19 -12 -19
-6 0 24 -52 12 -78 -18 -21 -23 -35 -30 -64 -30 -20 0 -40 5 -43 10 -8 13 -65
4 -115 -17 -41 -17 -139 -63 -160 -75 -8 -4 -31 -16 -50 -25 -41 -21 -97 -61
-163 -119 -33 -29 -53 -41 -67 -37 -15 4 -35 -8 -70 -41 -28 -26 -63 -52 -78
-59 -43 -19 -135 -91 -168 -132 -51 -64 -85 -95 -113 -101 -34 -9 -60 -31 -76
-69 -7 -16 -33 -54 -59 -83 -25 -30 -46 -59 -46 -66 0 -15 -42 -56 -58 -56 -6
0 -28 -25 -48 -56 -21 -31 -63 -77 -95 -103 -32 -25 -58 -52 -58 -59 -1 -7 -6
-10 -11 -7 -6 4 -7 11 -4 17 3 5 -34 -11 -82 -36 -57 -29 -113 -50 -154 -57
-36 -6 -75 -17 -87 -25 -12 -8 -46 -19 -75 -25 -29 -6 -65 -18 -80 -25 -30
-15 -57 -54 -38 -54 6 0 8 -5 5 -10 -4 -6 13 3 38 20 34 25 63 35 133 46 49 8
109 18 134 24 73 15 78 11 25 -19 -27 -15 -80 -34 -117 -41 -37 -6 -75 -18
-85 -25 -15 -12 -13 -13 22 -10 22 1 48 6 58 10 25 10 21 -11 -5 -29 -72 -51
92 -3 212 62 47 25 93 52 103 61 18 15 19 14 12 -34 -4 -28 -15 -63 -24 -80
-9 -16 -17 -39 -18 -50 -1 -11 -6 -33 -11 -50 -22 -65 -28 -125 -26 -245 2
-95 -1 -130 -12 -147 -17 -27 -18 -65 -3 -80 8 -8 7 -17 -5 -34 -27 -39 -17
-98 10 -61 12 16 13 16 14 0 0 -9 -11 -30 -25 -47 -14 -16 -25 -40 -24 -53 4
-46 0 -56 -21 -51 -16 4 -19 2 -14 -11 3 -9 12 -16 20 -16 10 0 14 -13 14 -44
0 -55 22 -78 39 -40 6 14 9 30 5 35 -11 18 -14 78 -4 84 5 3 10 17 10 30 0 18
-4 23 -15 19 -17 -7 -21 11 -5 21 5 3 21 -6 34 -22 19 -22 27 -25 38 -16 11
10 14 8 15 -7 2 -25 -16 -37 -28 -19 -6 10 -11 11 -19 3 -9 -9 -6 -25 10 -62
26 -60 49 -85 51 -56 3 53 5 59 18 56 7 -2 25 7 39 20 l25 23 -12 -22 c-6 -13
-16 -23 -21 -23 -16 0 -11 -27 5 -34 25 -9 -11 -59 -36 -51 -17 6 -19 2 -17
-29 2 -20 6 -36 9 -36 10 0 35 33 53 68 9 18 21 30 26 27 18 -11 10 -35 -22
-65 -31 -27 -32 -30 -16 -46 16 -16 16 -18 -8 -30 -13 -7 -31 -11 -39 -7 -20
7 -19 -24 1 -73 12 -29 13 -43 5 -56 -6 -10 -7 -18 -2 -18 6 0 23 -12 38 -26
15 -15 44 -37 64 -50 29 -18 38 -30 41 -61 3 -21 1 -47 -5 -57 -9 -19 -10 -19
-23 -1 -17 23 -18 71 -2 82 8 4 0 10 -22 14 -44 9 -50 5 -50 -35 0 -25 6 -35
25 -44 27 -12 58 -64 50 -84 -5 -14 46 -48 73 -48 12 0 11 4 -6 23 -12 13 -22
28 -22 34 0 21 35 2 53 -29 10 -17 20 -28 23 -25 3 3 0 16 -8 29 -39 70 -61
228 -57 408 6 245 3 368 -10 383 -14 18 -18 276 -4 301 9 16 12 14 32 -18 47
-76 171 -158 271 -179 115 -25 250 -12 334 30 18 10 32 11 38 5 16 -16 0 -45
-43 -77 -40 -29 -69 -79 -69 -116 0 -28 17 -23 34 10 9 16 30 37 49 48 18 11
50 47 72 79 52 79 160 208 202 240 19 14 46 44 61 67 35 55 41 58 73 41 35
-18 38 -27 43 -151 2 -56 7 -107 12 -114 4 -7 9 -40 11 -73 2 -33 9 -63 16
-68 9 -6 9 -10 0 -16 -17 -11 -4 -100 16 -107 9 -3 27 -21 39 -41 27 -42 24
-86 -9 -128 -25 -31 -21 -32 24 -6 46 27 79 108 57 135 -20 25 3 17 40 -13
104 -84 236 -137 367 -148 105 -9 188 15 298 87 95 63 279 244 350 346 28 40
55 71 60 69 18 -5 16 -33 -5 -80 -12 -25 -22 -62 -22 -83 0 -21 -4 -66 -10
-100 -9 -53 -8 -65 6 -78 21 -21 7 -56 -44 -112 -35 -37 -49 -63 -35 -63 12 0
116 80 138 106 34 41 67 120 67 161 0 24 11 47 38 82 l39 49 12 -33 c10 -30 8
-45 -20 -127 -17 -51 -44 -113 -60 -137 -38 -55 -84 -147 -93 -184 -11 -45
-54 -106 -89 -127 -36 -22 -87 -26 -105 -8 -20 20 -35 -6 -40 -73 -5 -66 12
-135 35 -144 19 -7 33 2 33 21 0 19 19 18 27 -2 5 -13 8 -79 4 -107 -1 -5 -19
5 -40 22 -21 17 -44 31 -50 31 -6 0 -11 7 -11 15 0 9 -12 28 -27 43 -25 25
-28 34 -28 100 0 66 3 76 24 93 18 15 21 23 13 31 -26 26 -174 -160 -185 -232
-3 -19 -10 -55 -15 -80 -6 -25 -13 -92 -16 -150 -5 -100 -4 -108 22 -160 20
-40 34 -56 51 -58 18 -3 21 -6 11 -12 -9 -6 -1 -12 27 -20 31 -10 45 -10 62 0
13 6 25 9 28 6 8 -8 -6 -67 -26 -111 -20 -42 -19 -58 3 -49 8 3 17 28 21 57 4
29 16 69 26 89 11 21 19 50 19 65 0 15 7 37 15 47 8 11 15 33 15 49 0 30 28
87 42 87 5 0 6 -10 4 -22 -14 -66 -15 -111 -5 -130 8 -14 8 -27 1 -42 -17 -36
-22 -57 -12 -51 14 9 12 -11 -2 -35 -14 -21 1 -48 20 -36 15 9 45 132 39 162
-3 15 1 48 9 73 8 25 14 63 14 83 0 54 8 69 35 62 20 -5 24 -1 30 26 4 17 5
34 2 37 -8 7 -47 -16 -47 -29 0 -6 -6 -5 -16 3 -14 11 -18 10 -30 -6 -8 -10
-14 -26 -14 -35 0 -9 -9 -25 -20 -35 -11 -10 -20 -14 -20 -10 0 4 -9 0 -20
-10 -11 -10 -29 -49 -40 -87 -20 -64 -23 -68 -50 -68 -39 0 -39 21 0 79 39 57
40 85 3 49 -16 -15 -40 -30 -55 -33 -26 -7 -28 -5 -28 21 1 50 27 184 40 199
17 21 25 19 39 -11 10 -22 9 -30 -5 -45 -14 -16 -15 -24 -6 -44 6 -14 15 -25
20 -25 13 0 34 87 27 112 -7 22 -6 22 11 6 13 -13 17 -30 16 -60 -2 -34 1 -46
17 -56 20 -11 21 -10 21 26 0 21 -4 42 -9 47 -6 7 5 10 32 10 77 0 100 17 120
88 28 100 29 118 14 192 -8 39 -13 74 -10 78 7 11 53 -33 53 -50 0 -8 13 -18
28 -24 28 -9 55 -58 47 -82 -8 -22 -12 -227 -5 -227 9 0 56 111 64 153 4 15
11 27 16 27 6 0 5 -8 -2 -20 -9 -14 -10 -22 -1 -31 8 -8 16 -4 28 15 19 29 54
147 55 184 0 23 14 30 26 11 3 -6 1 -16 -5 -22 -6 -6 -11 -22 -11 -36 l1 -26
15 29 c17 30 16 61 -6 158 -13 60 -7 112 13 105 7 -2 15 -21 18 -43 9 -64 21
-16 16 67 -3 50 -9 76 -20 84 -10 7 -13 16 -7 25 8 13 4 117 -5 148 -3 7 0 24
6 38 7 20 6 31 -5 43 -12 13 -13 25 -5 56 9 41 -1 156 -23 263 -8 35 -8 70 -2
105 12 69 3 279 -13 284 -6 2 -13 -4 -16 -14 -3 -10 -5 3 -6 28 -1 30 4 51 14
59 13 11 45 102 45 129 0 6 -6 11 -14 11 -11 0 -14 10 -11 38 l5 37 -13 -37
c-16 -49 -27 -58 -27 -22 0 23 -2 26 -10 14 -8 -11 -10 7 -8 60 2 97 -9 195
-27 234 -8 17 -16 64 -18 104 -3 46 -10 79 -19 90 -9 9 -19 28 -23 42 -4 14
-14 34 -21 45 -18 26 -18 33 4 31 13 -1 17 7 17 29 1 30 -9 40 -62 64 -32 15
-27 40 10 54 26 10 21 28 -23 76 -44 48 -50 66 -20 58 11 -3 20 -1 20 4 0 5
-7 9 -15 9 -8 0 -15 7 -15 15 0 22 -11 19 -61 -17 -47 -35 -38 -13 15 33 l29
25 -43 36 c-46 40 -46 59 3 57 18 -1 24 -3 15 -6 -18 -4 -25 -23 -10 -23 5 0
35 -27 68 -60 32 -33 66 -60 75 -60 18 0 59 -41 59 -58 0 -7 10 -16 23 -21 14
-6 34 -32 52 -70 22 -45 34 -60 47 -57 14 3 17 -1 12 -20 -4 -13 -2 -30 4 -37
6 -6 14 -27 19 -46 12 -45 29 -50 38 -12 4 17 10 33 15 36 8 5 -1 -45 -15 -76
-9 -23 44 -169 61 -169 8 0 14 8 14 17 0 9 7 25 16 35 16 17 15 23 -5 90 -23
81 -26 119 -10 135 11 11 -36 133 -72 185 -11 14 -19 30 -19 35 -1 4 -9 18
-19 31 -23 27 -46 30 -36 5 4 -10 8 -27 10 -38 5 -33 17 -55 26 -49 6 3 7 -5
3 -21 -5 -19 -1 -32 14 -48 11 -12 23 -33 27 -47 8 -28 -2 -22 -20 12 -6 13
-17 22 -23 21 -6 -2 -14 6 -17 17 -4 13 -15 20 -32 20 -22 0 -24 2 -12 16 9
11 13 37 11 77 -3 48 -10 70 -33 104 -17 24 -34 43 -39 43 -5 0 -10 10 -12 22
-2 13 -24 36 -55 57 -46 31 -53 40 -53 68 0 18 4 33 8 33 18 0 92 -61 92 -75
0 -8 5 -15 10 -15 6 0 10 11 10 24 0 14 -4 28 -10 31 -13 8 -13 25 -1 25 6 0
39 -25 75 -55 35 -30 70 -55 78 -55 14 0 58 -59 58 -78 0 -7 7 -12 15 -12 8 0
15 5 15 10 0 18 22 10 42 -16 12 -15 24 -22 30 -16 10 10 0 42 -13 42 -5 0
-26 17 -47 38 -21 20 -65 57 -97 82 -33 25 -98 80 -144 122 -88 82 -114 93
-166 72 -19 -7 -19 -7 -2 13 18 21 18 21 -30 25 -26 3 -56 0 -67 -5 -10 -5
-34 -6 -53 -2 -29 5 -32 9 -22 21 9 11 15 12 26 3 10 -9 19 -9 36 -1 15 8 41
9 79 4 32 -5 63 -5 70 0 7 4 30 8 52 8 32 0 37 2 26 15 -15 18 -3 38 19 31 9
-4 7 2 -8 14 -20 18 -46 24 -88 23 -7 -1 -13 5 -13 13 0 8 -5 14 -11 14 -5 0
-30 9 -55 20 -33 15 -49 18 -63 10 -16 -8 -18 -7 -14 8 6 25 -60 47 -78 26z
m-40 -145 c1 -34 4 -66 7 -71 7 -11 -13 -28 -32 -28 -18 0 -25 46 -12 75 9 19
9 28 0 37 -9 9 -8 16 5 30 26 28 30 22 32 -43z m141 47 l25 -14 -28 -13 c-22
-10 -30 -10 -40 1 -9 10 -9 13 1 17 6 3 10 9 6 14 -8 13 7 11 36 -5z m163 -27
c7 0 3 -4 -8 -9 -29 -13 -35 -12 -35 6 0 11 5 14 16 10 9 -3 21 -6 27 -7z
m-178 -159 c3 -6 -1 -7 -9 -4 -18 7 -21 14 -7 14 6 0 13 -4 16 -10z m220 -20
c17 -7 15 -9 -12 -9 -18 -1 -33 4 -33 9 0 12 17 12 45 0z m-282 -27 c-7 -2
-21 -2 -30 0 -10 3 -4 5 12 5 17 0 24 -2 18 -5z m172 -1 c-13 -12 -73 -32 -94
-32 -12 0 -10 5 7 18 24 18 106 31 87 14z m40 -12 c3 -5 0 -19 -8 -31 -17 -24
-29 -13 -20 19 6 23 18 28 28 12z m3 -223 c5 -24 -15 -21 -21 4 -3 13 -1 19 6
16 7 -2 13 -11 15 -20z m-141 -33 c-3 -3 -12 -4 -19 -1 -8 3 -5 6 6 6 11 1 17
-2 13 -5z m-1313 -19 c-3 -8 -27 -31 -52 -52 -76 -61 -202 -174 -250 -226 -33
-35 -50 -46 -64 -41 -12 3 -27 -1 -39 -12 -39 -36 -25 -7 22 44 29 31 49 47
49 38 0 -31 28 -15 59 33 39 61 140 157 183 176 18 7 42 22 53 34 23 23 47 27
39 6z m1471 4 c11 -17 -1 -21 -15 -4 -8 9 -8 15 -2 15 6 0 14 -5 17 -11z m125
-59 c18 -28 30 -54 26 -57 -3 -4 -7 -4 -9 -2 -39 56 -57 87 -57 97 0 20 7 14
40 -38z m-1055 -71 c5 -7 11 -6 21 2 11 9 14 8 14 -5 0 -14 4 -15 21 -6 12 7
37 9 60 5 26 -5 48 -2 70 9 30 15 32 14 49 -7 18 -21 19 -21 54 -4 48 22 59
22 51 -3 -7 -21 10 -28 18 -7 4 7 8 4 12 -9 9 -28 92 -90 131 -97 18 -4 36 -1
43 6 10 9 11 6 6 -15 -6 -23 -2 -28 29 -43 20 -10 49 -32 66 -51 16 -19 34
-34 39 -34 5 0 20 -14 32 -32 l23 -32 13 30 c6 16 12 51 13 78 0 90 10 42 14
-72 2 -62 -1 -112 -5 -112 -5 0 -9 9 -9 19 0 24 -25 34 -40 16 -9 -11 -6 -21
11 -44 13 -17 26 -31 31 -31 5 0 5 -17 2 -38 -5 -32 -2 -43 21 -70 24 -28 25
-33 12 -54 -20 -32 -31 -136 -16 -154 9 -11 8 -18 -1 -30 -8 -8 -15 -41 -16
-72 -2 -31 -6 -80 -9 -108 -5 -41 -3 -55 11 -69 17 -16 18 -16 30 0 11 15 15
10 28 -36 9 -29 16 -60 16 -70 0 -10 9 -38 20 -64 18 -41 19 -52 8 -89 -6 -22
-13 -48 -14 -57 -2 -29 -16 -41 -40 -35 -22 6 -22 5 -8 -21 18 -36 18 -94 -1
-140 -22 -51 -26 -38 -9 27 13 50 13 60 -3 104 -13 35 -28 55 -54 72 -40 25
-235 91 -349 119 -41 10 -86 24 -100 31 -33 16 -169 54 -196 54 -12 0 -27 6
-33 14 -15 17 -105 30 -128 17 -10 -5 -31 -13 -47 -16 -16 -3 -30 -14 -33 -25
-3 -11 -11 -16 -20 -13 -8 3 -28 -8 -47 -26 -73 -71 -230 -94 -313 -46 -46 28
-79 75 -62 92 6 6 5 14 -6 23 -8 7 -15 23 -15 35 0 12 -7 28 -15 35 -10 9 -13
23 -9 49 6 40 -23 95 -61 115 -11 5 -33 19 -48 29 -19 13 -40 17 -60 14 -18
-2 -43 1 -57 8 -114 60 -159 74 -232 71 -73 -3 -98 0 -98 13 0 3 20 29 45 56
25 28 45 57 45 66 0 25 55 80 73 73 9 -3 32 17 67 61 54 68 76 85 108 85 10 0
23 8 28 18 10 21 173 168 216 195 15 9 36 17 46 17 11 0 25 7 32 15 7 8 20 15
29 15 9 0 30 9 46 20 17 11 36 20 43 20 7 0 25 14 41 32 28 31 29 31 35 10 4
-12 11 -22 16 -22 12 0 30 34 30 57 0 36 22 45 48 20 21 -20 25 -20 35 -6 9
12 27 15 69 13 32 -1 61 2 64 7 3 5 10 7 15 3 5 -3 9 -2 8 3 -3 19 2 23 20 13
11 -5 23 -15 26 -21z m855 -59 c0 -11 -4 -20 -10 -20 -5 0 -10 9 -10 20 0 11
5 20 10 20 6 0 10 -9 10 -20z m267 -12 c-3 -8 -6 -5 -6 6 -1 11 2 17 5 13 3
-3 4 -12 1 -19z m123 -89 c0 -6 -4 -7 -10 -4 -5 3 -10 11 -10 16 0 6 5 7 10 4
6 -3 10 -11 10 -16z m-334 -218 c14 -31 14 -33 0 -22 -17 14 -42 87 -50 146
-4 30 0 24 15 -25 11 -36 27 -80 35 -99z m-1897 125 c9 -10 3 -19 -27 -40 -21
-14 -41 -26 -46 -26 -5 0 54 79 60 80 1 0 7 -6 13 -14z m-95 -271 c-4 -8 -8
-15 -10 -15 -2 0 -4 7 -4 15 0 8 4 15 10 15 5 0 7 -7 4 -15z m2087 -107 c0
-42 -4 -85 -9 -95 -14 -27 -32 -141 -33 -209 0 -51 -2 -55 -11 -32 -9 25 -1
107 29 297 4 25 1 38 -11 47 -10 7 -13 15 -7 18 5 4 13 28 17 53 6 43 8 45 16
23 5 -13 9 -59 9 -102z m-84 -138 c-7 -17 -13 -26 -15 -21 -3 10 15 51 22 51
3 0 -1 -14 -7 -30z m-2277 -11 c0 -5 -4 -9 -10 -9 -5 0 -10 7 -10 16 0 8 5 12
10 9 6 -3 10 -10 10 -16z m-160 -71 c0 -7 -4 -19 -9 -27 -11 -17 -23 1 -15 23
7 19 24 21 24 4z m2431 -55 c-12 -20 -14 -14 -5 12 4 9 9 14 11 11 3 -2 0 -13
-6 -23z m-16 -64 c-5 -30 -3 -44 6 -50 7 -4 10 -11 6 -15 -17 -17 -29 16 -23
60 4 25 10 46 12 46 3 0 3 -19 -1 -41z m-3119 -75 c-30 -21 -44 -16 -17 7 13
11 27 17 30 13 3 -3 -3 -12 -13 -20z m2084 -140 c-17 -19 -50 -37 -50 -27 0 7
48 42 59 43 2 0 -2 -7 -9 -16z m-1265 -147 c33 -32 34 -36 41 -127 3 -40 10
-69 19 -76 8 -6 15 -16 15 -22 0 -17 34 -32 58 -25 12 3 22 9 22 13 0 17 62
40 80 30 24 -13 30 -13 30 2 0 14 30 48 42 48 4 0 8 -6 8 -14 0 -26 23 -30 42
-7 12 16 23 21 35 16 17 -7 16 -8 -2 -14 -32 -10 -65 -35 -65 -49 0 -7 5 -21
12 -31 9 -15 16 -17 30 -10 10 5 18 16 18 23 0 22 34 46 50 36 22 -14 60 -12
60 3 0 7 -16 19 -35 27 -42 16 -36 30 13 30 20 0 44 4 52 10 9 5 19 5 27 -2 7
-6 23 -8 34 -5 46 12 -55 -73 -130 -109 -69 -34 -84 -38 -161 -38 -47 -1 -103
4 -125 11 -22 6 -60 17 -84 23 -48 13 -132 84 -158 134 -25 49 -25 130 0 162
20 26 22 26 31 8 6 -10 24 -31 41 -47z m725 42 c0 -6 -9 -24 -21 -40 -16 -23
-28 -29 -57 -29 l-37 1 45 39 c45 40 70 50 70 29z m1040 -81 c0 -18 -2 -20 -9
-8 -6 8 -7 18 -5 22 9 14 14 9 14 -14z m-754 -73 c-7 -38 -26 -39 -26 -1 0 21
19 50 28 41 2 -2 1 -20 -2 -40z m433 29 c2 -2 2 -6 -1 -9 -9 -10 -58 6 -52 16
5 9 41 3 53 -7z m126 -3 c3 -6 -10 -7 -32 -4 -50 8 -55 13 -10 13 20 0 38 -4
42 -9z m-1440 -51 c4 -6 11 -25 16 -42 9 -32 9 -32 -10 -13 -23 24 -37 65 -22
65 5 0 13 -5 16 -10z m2048 -47 c-7 -2 -13 -11 -13 -19 0 -8 -7 -14 -17 -14
-14 0 -14 2 2 20 10 11 23 20 29 19 6 0 6 -3 -1 -6z m-823 -28 c0 -20 -5 -25
-25 -25 -25 0 -25 1 -9 25 9 14 20 25 25 25 5 0 9 -11 9 -25z m305 5 c-3 -5
-17 -10 -31 -10 -14 0 -22 4 -19 10 3 6 17 10 31 10 14 0 22 -4 19 -10z m383
-25 c7 -57 -62 -167 -182 -290 -140 -143 -180 -165 -299 -165 -59 0 -88 4 -96
13 -6 8 -8 17 -4 20 10 10 82 8 102 -3 28 -15 68 32 54 62 -9 19 -6 26 13 41
24 18 24 18 24 -8 0 -34 10 -32 50 10 19 20 49 44 67 55 28 16 32 17 37 3 6
-14 9 -13 28 3 11 11 27 33 34 51 10 22 21 33 40 35 20 2 29 12 41 43 8 22 15
48 15 57 -1 10 3 20 9 23 5 4 9 -1 9 -9 0 -21 16 -20 24 0 8 20 -2 54 -14 54
-5 0 -15 -9 -23 -20 -8 -11 -17 -17 -21 -13 -9 9 65 73 79 69 6 -1 11 -15 13
-31z m-378 -76 c0 -6 -5 -7 -12 -3 -6 4 -8 3 -5 -4 4 -5 4 -18 1 -27 -6 -16
-8 -16 -16 -1 -10 18 8 60 23 51 5 -4 9 -11 9 -16z m-476 -54 c-4 -8 -10 -15
-15 -15 -12 0 -11 -27 1 -35 6 -4 19 -1 28 6 9 7 1 -4 -19 -25 -20 -21 -41
-36 -47 -32 -14 9 -22 76 -11 97 12 24 72 27 63 4z m56 11 c0 -9 -30 -14 -35
-6 -4 6 3 10 14 10 12 0 21 -2 21 -4z m41 -32 c-9 -28 -9 -29 -10 -3 -1 14 2
29 6 32 11 12 13 2 4 -29z m-1623 -94 c-2 -7 -10 1 -17 16 -12 27 -11 28 4 12
10 -9 16 -21 13 -28z m1532 -15 c-7 -9 -15 -13 -18 -10 -3 2 1 11 8 20 7 9 15
13 18 10 3 -2 -1 -11 -8 -20z m40 -13 c0 -4 -9 -13 -20 -20 -16 -10 -20 -10
-20 2 0 8 6 17 13 19 19 8 27 8 27 -1z m400 -2 c0 -5 -2 -10 -4 -10 -3 0 -8 5
-11 10 -3 6 -1 10 4 10 6 0 11 -4 11 -10z m-1914 -31 c22 -43 4 -57 -25 -19
-21 29 -21 50 -1 50 5 0 17 -14 26 -31z m1671 -48 c-1 -31 -6 -59 -12 -63 -14
-10 -103 41 -110 63 -4 10 -2 27 4 36 9 17 10 17 16 1 6 -15 11 -14 38 11 25
24 34 27 48 18 14 -9 17 -23 16 -66z m-1717 -26 c-7 -9 -15 -13 -18 -10 -3 2
1 11 8 20 7 9 15 13 18 10 3 -2 -1 -11 -8 -20z m148 -158 c-4 -26 -19 -31 -43
-13 -19 14 -19 15 -1 35 15 16 22 18 33 9 8 -6 13 -20 11 -31z m-48 -86 c0 -5
14 -14 30 -20 28 -9 39 -25 23 -33 -15 -6 -53 -67 -53 -84 0 -14 2 -15 18 -3
15 13 16 12 3 -3 -17 -22 -31 -14 -31 17 0 12 -7 25 -15 29 -8 3 -15 14 -15
25 0 15 5 19 16 14 14 -5 16 -1 10 30 -4 24 -3 37 4 37 5 0 10 -4 10 -9z
m2695 -50 c4 -20 0 -42 -14 -70 -12 -22 -18 -47 -15 -55 10 -25 -87 -148 -103
-132 -4 3 14 28 40 54 l46 47 3 85 c4 85 12 115 28 105 5 -3 11 -18 15 -34z
m-98 -78 c-3 -10 -5 -4 -5 12 0 17 2 24 5 18 2 -7 2 -21 0 -30z m0 -65 c-3 -8
-6 -5 -6 6 -1 11 2 17 5 13 3 -3 4 -12 1 -19z m-567 -417 c0 -11 3 -28 6 -38
5 -16 4 -16 -10 1 -18 22 -21 56 -6 56 6 0 10 -9 10 -19z m30 -82 c0 -6 -4 -7
-10 -4 -5 3 -10 11 -10 16 0 6 5 7 10 4 6 -3 10 -11 10 -16z"/>
<path d="M3375 4720 c3 -5 11 -10 16 -10 6 0 7 5 4 10 -3 6 -11 10 -16 10 -6
0 -7 -4 -4 -10z"/>
<path d="M4397 4039 c-18 -21 -25 -38 -22 -50 9 -28 27 -23 54 17 21 30 22 37
10 49 -13 13 -18 11 -42 -16z"/>
<path d="M3190 5926 c-14 -6 -32 -15 -40 -21 -8 -5 -20 -10 -26 -11 -18 -3
-64 -35 -64 -45 0 -15 20 -10 47 11 14 11 33 20 42 20 18 0 79 46 71 53 -3 2
-16 -1 -30 -7z"/>
<path d="M3282 5908 c5 -15 28 -18 29 -3 0 6 -7 12 -17 13 -10 3 -15 -1 -12
-10z"/>
<path d="M2950 5779 c-41 -23 -91 -56 -110 -75 l-35 -34 27 0 c14 0 28 7 31
15 4 8 37 30 74 49 37 19 76 47 86 61 24 34 15 32 -73 -16z"/>
<path d="M3951 5771 c-11 -27 -21 -57 -21 -66 0 -9 -11 -31 -25 -50 l-26 -33
36 -4 c37 -4 46 5 18 20 -15 9 -15 13 9 43 14 19 28 51 32 72 4 21 10 45 13
53 3 8 1 14 -5 14 -5 0 -19 -22 -31 -49z"/>
<path d="M3153 5803 c-15 -6 -17 -33 -3 -33 5 0 14 9 20 20 11 20 6 23 -17 13z"/>
<path d="M4600 5770 c0 -12 80 -51 91 -45 4 3 21 -9 37 -26 32 -34 52 -32 52
6 0 17 -12 30 -44 49 -51 30 -71 33 -62 10 3 -9 2 -12 -4 -9 -22 13 -70 23
-70 15z"/>
<path d="M2985 5690 c-25 -28 -13 -35 26 -15 24 13 29 19 18 26 -20 12 -24 11
-44 -11z"/>
<path d="M3101 5666 c-6 -7 -22 -11 -37 -8 -19 3 -26 0 -30 -15 -4 -14 -12
-18 -32 -16 -15 2 -38 -3 -52 -12 -14 -8 -33 -18 -42 -21 -10 -3 -18 -12 -18
-20 0 -7 -15 -21 -32 -30 -18 -9 -36 -22 -40 -28 -4 -6 -13 -11 -20 -11 -19 0
-78 -38 -78 -50 0 -6 -12 -18 -28 -27 -15 -9 -54 -44 -87 -78 -33 -35 -71 -72
-83 -84 -13 -11 -30 -34 -37 -51 -7 -16 -52 -70 -99 -119 -47 -50 -85 -95 -84
-100 2 -11 -15 -30 -161 -182 -69 -72 -104 -124 -81 -124 4 0 24 20 44 45 21
25 45 45 55 45 28 0 191 187 173 199 -7 4 -4 13 7 26 26 31 148 135 158 135
13 0 53 44 53 58 0 27 57 91 95 107 22 10 56 37 75 61 19 24 38 44 42 44 4 0
30 23 58 50 28 28 55 50 60 50 5 0 32 14 60 30 28 17 59 30 68 31 25 1 103 61
113 87 9 24 -2 30 -20 8z"/>
<path d="M3982 5617 c-8 -10 -3 -12 27 -9 27 3 43 -2 56 -15 17 -16 40 -32 73
-49 21 -11 26 4 9 30 -11 16 -35 30 -71 40 -65 19 -80 20 -94 3z"/>
<path d="M2695 5561 c-3 -5 -1 -12 5 -16 5 -3 10 1 10 9 0 18 -6 21 -15 7z"/>
<path d="M3920 5562 c0 -5 11 -19 24 -31 20 -18 29 -21 57 -14 44 12 47 28 8
42 -37 13 -89 15 -89 3z"/>
<path d="M4747 5510 c5 -20 15 -25 26 -13 8 7 -11 33 -23 33 -5 0 -6 -9 -3
-20z"/>
<path d="M4780 5465 c0 -14 5 -25 10 -25 6 0 15 -11 20 -25 5 -14 14 -25 20
-25 7 0 8 6 0 19 -14 27 -13 36 4 22 8 -7 17 -24 21 -38 3 -15 15 -38 26 -51
l19 -25 -6 34 c-4 19 -25 55 -48 80 -52 59 -66 66 -66 34z"/>
<path d="M4942 5313 c16 -32 34 -77 40 -100 15 -61 28 -53 28 17 0 55 -3 63
-36 100 -53 58 -66 51 -32 -17z"/>
<path d="M4921 5263 c7 -12 15 -20 18 -17 3 2 -3 12 -13 22 -17 16 -18 16 -5
-5z"/>
<path d="M5030 5221 c0 -16 -5 -42 -11 -57 -9 -24 -5 -38 24 -99 19 -38 41
-83 48 -100 l14 -30 3 49 c2 37 -1 52 -12 58 -22 12 -20 41 4 63 25 22 25 40
3 63 -10 9 -23 31 -28 47 -15 42 -45 46 -45 6z m62 -76 c10 -21 9 -29 -5 -43
-16 -15 -17 -15 -17 4 0 11 -5 25 -11 31 -12 12 -4 33 12 33 5 0 15 -11 21
-25z"/>
<path d="M2040 5185 c-7 -8 -8 -15 -2 -15 5 0 15 7 22 15 7 8 8 15 2 15 -5 0
-15 -7 -22 -15z"/>
<path d="M5026 4900 c-3 -8 -1 -38 5 -65 6 -28 12 -62 13 -76 1 -20 5 -25 19
-21 14 3 17 11 13 26 -4 11 -9 35 -12 51 -3 17 -9 39 -14 50 -5 11 -11 27 -13
35 -4 13 -5 13 -11 0z"/>
<path d="M4831 4844 c0 -11 3 -14 6 -6 3 7 2 16 -1 19 -3 4 -6 -2 -5 -13z"/>
<path d="M5164 4786 c-7 -28 2 -49 17 -41 12 8 12 52 -1 60 -5 3 -12 -5 -16
-19z"/>
<path d="M4893 4695 c-1 -42 -5 -86 -8 -98 -3 -12 6 -2 19 23 30 54 31 64 8
113 l-17 39 -2 -77z"/>
<path d="M1968 4678 c-18 -22 -48 -55 -65 -71 -18 -17 -33 -37 -33 -45 0 -8
12 -1 29 17 16 17 33 31 39 31 8 0 40 41 75 97 19 31 -15 9 -45 -29z"/>
<path d="M5087 4553 c-13 -12 -6 -58 13 -93 23 -42 25 -31 5 27 -8 23 -12 49
-9 58 6 16 2 20 -9 8z"/>
<path d="M1775 4485 c-20 -25 -35 -48 -33 -50 2 -3 21 16 42 41 21 25 36 47
33 50 -2 2 -21 -16 -42 -41z"/>
<path d="M4921 4395 c0 -11 4 -29 9 -40 l9 -20 0 20 c0 11 -4 29 -9 40 l-9 20
0 -20z"/>
<path d="M5026 4323 c13 -58 27 -99 45 -125 21 -29 24 -43 9 -33 -40 24 52
-106 113 -161 69 -62 116 -98 122 -92 3 2 -14 30 -38 60 -23 31 -62 88 -87
128 -24 40 -53 78 -65 86 -13 8 -25 34 -33 69 -13 53 -40 95 -62 95 -6 0 -8
-12 -4 -27z"/>
<path d="M1565 4110 c-3 -5 -1 -10 4 -10 6 0 11 5 11 10 0 6 -2 10 -4 10 -3 0
-8 -4 -11 -10z"/>
<path d="M5063 4069 c9 -13 33 -46 52 -74 19 -27 41 -57 48 -66 10 -14 53 -31
82 -33 6 -1 17 -14 25 -31 11 -22 21 -29 38 -27 38 6 26 25 -43 67 -62 38
-165 127 -177 153 -7 14 -20 28 -28 30 -12 4 -11 0 3 -19z"/>
<path d="M5036 4035 c12 -50 40 -98 79 -135 l37 -35 -16 33 c-17 32 -91 150
-102 161 -3 3 -2 -8 2 -24z"/>
<path d="M5300 3992 c0 -10 24 -47 53 -83 29 -35 68 -86 86 -112 18 -27 35
-46 38 -44 7 8 -12 40 -46 76 -16 18 -28 38 -25 46 3 7 -13 38 -36 67 -50 63
-70 77 -70 50z"/>
<path d="M1801 3966 c-8 -9 -11 -19 -7 -23 9 -9 29 13 24 27 -2 8 -8 7 -17 -4z"/>
<path d="M1740 3828 c-19 -26 -30 -53 -30 -75 0 -19 -6 -46 -14 -61 -7 -15
-16 -56 -19 -92 -4 -41 -3 -57 3 -44 5 12 13 25 18 28 5 3 7 18 5 33 -4 25 -3
25 16 -9 12 -21 21 -54 21 -74 0 -39 16 -77 29 -69 5 2 2 23 -5 46 -8 23 -12
50 -9 60 4 10 -1 29 -9 41 -18 26 -21 74 -5 83 21 14 30 57 18 92 -10 31 -9
37 12 59 12 13 17 24 11 24 -7 0 -25 -19 -42 -42z"/>
<path d="M5210 3816 c0 -2 8 -10 18 -17 15 -13 16 -12 3 4 -13 16 -21 21 -21
13z"/>
<path d="M5120 3631 c0 -5 5 -13 10 -16 6 -3 10 -2 10 4 0 5 -4 13 -10 16 -5
3 -10 2 -10 -4z"/>
<path d="M5157 3515 c3 -27 7 -52 9 -54 8 -9 2 65 -6 84 -6 13 -7 2 -3 -30z"/>
<path d="M5182 3348 c-9 -17 -9 -41 -3 -88 l9 -65 -1 73 c-1 39 -1 72 1 72 1
0 7 -10 12 -22 8 -21 9 -21 9 -3 0 11 -4 28 -8 38 -6 17 -8 17 -19 -5z"/>
<path d="M2745 3285 c-3 -8 -7 -22 -10 -30 -7 -23 5 -45 25 -45 23 0 36 18 31
45 -6 39 -37 59 -46 30z"/>
<path d="M3078 3189 c-21 -11 -38 -23 -38 -28 0 -10 101 -1 117 11 7 5 14 5
18 -2 8 -13 35 -13 35 0 0 12 -54 40 -77 40 -10 -1 -35 -10 -55 -21z"/>
<path d="M1822 3147 c-15 -17 8 -85 30 -90 10 -3 18 -14 18 -25 0 -11 7 -23
16 -26 12 -5 14 -1 9 17 -4 12 -13 31 -20 42 -6 11 -15 37 -19 58 -7 39 -16
46 -34 24z"/>
<path d="M3040 3131 c0 -5 5 -13 10 -16 6 -3 10 -2 10 4 0 5 -4 13 -10 16 -5
3 -10 2 -10 -4z"/>
<path d="M2960 3089 c0 -5 5 -7 10 -4 6 3 10 8 10 11 0 2 -4 4 -10 4 -5 0 -10
-5 -10 -11z"/>
<path d="M5191 3074 c0 -11 3 -14 6 -6 3 7 2 16 -1 19 -3 4 -6 -2 -5 -13z"/>
<path d="M5165 3010 c-8 -26 4 -48 16 -29 12 19 11 49 0 49 -5 0 -12 -9 -16
-20z"/>
<path d="M4372 3008 c3 -7 13 -15 22 -16 12 -3 17 1 14 10 -3 7 -13 15 -22 16
-12 3 -17 -1 -14 -10z"/>
<path d="M1460 2995 c-7 -9 -11 -18 -8 -20 3 -3 11 1 18 10 7 9 11 18 8 20 -3
3 -11 -1 -18 -10z"/>
<path d="M2484 2976 c-10 -26 2 -43 31 -43 30 0 68 -33 85 -74 11 -25 14 -27
27 -14 17 18 50 20 55 4 2 -7 13 -9 26 -5 27 9 19 26 -12 26 -36 0 -92 27
-134 63 -68 59 -71 61 -78 43z"/>
<path d="M1831 2844 c0 -11 3 -14 6 -6 3 7 2 16 -1 19 -3 4 -6 -2 -5 -13z"/>
<path d="M2740 2851 c0 -14 23 -28 60 -36 19 -4 40 -11 45 -15 15 -11 52 -20
120 -30 131 -20 173 -28 193 -41 16 -10 28 -10 60 -1 50 15 97 15 122 0 24
-15 38 -3 24 20 -9 14 -29 17 -114 19 -57 0 -121 6 -144 12 -23 5 -75 12 -116
16 -79 6 -118 16 -188 46 -47 21 -62 23 -62 10z"/>
<path d="M1935 2778 c-4 -24 -13 -55 -21 -69 -12 -25 -10 -39 7 -39 4 0 10 18
14 40 4 22 11 42 16 46 12 7 12 51 0 58 -5 4 -12 -13 -16 -36z"/>
<path d="M3480 2786 c0 -45 16 -55 24 -15 9 45 8 49 -9 49 -10 0 -15 -10 -15
-34z"/>
<path d="M1981 2718 c-1 -15 -5 -38 -11 -53 -6 -16 -6 -24 0 -20 12 7 24 69
17 87 -3 7 -6 1 -6 -14z"/>
<path d="M1890 2644 c0 -8 5 -12 10 -9 6 3 10 10 10 16 0 5 -4 9 -10 9 -5 0
-10 -7 -10 -16z"/>
<path d="M2009 2634 c-5 -15 -8 -29 -5 -31 2 -2 8 10 14 26 13 38 5 41 -9 5z"/>
<path d="M4681 2553 c-7 -16 -31 -56 -53 -91 -71 -109 -100 -166 -121 -235
-14 -48 -14 -48 5 -30 11 10 31 41 45 68 37 75 66 114 90 121 16 4 24 16 29
43 4 20 15 58 25 84 23 57 23 67 6 67 -8 0 -19 -12 -26 -27z"/>
<path d="M1804 2541 c-54 -14 -135 -64 -169 -106 -42 -51 -75 -151 -75 -227 0
-56 1 -59 23 -56 20 3 22 9 24 66 5 122 85 211 203 226 25 3 410 8 856 12 788
6 813 5 855 -13 57 -26 105 -67 130 -112 l20 -36 -6 40 c-5 37 -4 39 10 20 24
-30 38 -94 36 -162 -1 -60 0 -63 23 -63 50 0 56 8 56 74 0 93 -20 155 -73 224
-26 33 -58 69 -72 80 -36 29 -126 34 -515 32 -670 -3 -1197 -2 -1246 3 -27 3
-63 2 -80 -2z"/>
<path d="M4185 2450 c-4 -12 -5 -24 -2 -27 3 -2 8 5 12 17 4 12 5 24 2 27 -3
2 -8 -5 -12 -17z"/>
<path d="M5108 2378 c-23 -35 -30 -66 -20 -84 8 -14 12 -12 29 12 29 42 36 69
19 83 -11 9 -17 7 -28 -11z"/>
<path d="M3055 2371 c-23 -10 -53 -32 -67 -50 l-27 -31 -37 25 c-31 21 -48 25
-113 25 -88 0 -130 -19 -150 -69 -20 -46 -7 -94 35 -130 33 -29 39 -31 119
-31 75 0 86 3 114 26 l32 26 39 -45 c49 -55 55 -56 285 -59 164 -2 171 -2 215
22 49 27 90 92 90 143 0 32 -30 95 -56 118 -51 44 -76 49 -261 49 -151 0 -184
-3 -218 -19z m-131 -92 c34 -40 33 -74 -3 -110 -27 -26 -36 -29 -95 -29 -83 0
-114 12 -130 51 -17 41 -11 63 26 94 26 22 39 25 103 25 70 0 75 -2 99 -31z
m91 -20 c-21 -40 -12 -82 26 -113 40 -34 68 -38 252 -34 86 2 157 0 157 -3 0
-13 -38 -15 -195 -12 -180 4 -213 14 -252 72 -28 42 -29 61 -2 95 27 35 33 33
14 -5z m426 -6 c-12 -20 -14 -14 -5 12 4 9 9 14 11 11 3 -2 0 -13 -6 -23z
m-288 -35 c-10 -11 -19 -15 -21 -8 -5 15 18 41 30 34 5 -3 1 -15 -9 -26z"/>
<path d="M2890 2226 c0 -21 21 -31 31 -15 14 22 11 29 -11 29 -11 0 -20 -6
-20 -14z"/>
<path d="M5056 2253 c-6 -14 -5 -15 5 -6 7 7 10 15 7 18 -3 3 -9 -2 -12 -12z"/>
<path d="M4759 2213 c-1 -5 -1 -12 0 -17 1 -4 -4 -16 -11 -25 -12 -14 -11 -14
4 -3 9 7 16 22 15 33 -1 19 -6 26 -8 12z"/>
<path d="M4080 2141 c0 -5 7 -15 17 -22 15 -13 15 -12 4 9 -12 23 -21 28 -21
13z"/>
<path d="M4972 2096 c-11 -41 -80 -156 -116 -191 -9 -9 -19 -28 -23 -43 -3
-15 -12 -36 -20 -48 -7 -11 -10 -24 -6 -28 5 -4 -5 -19 -22 -32 -40 -32 -22
-30 40 4 30 16 55 39 64 57 7 17 23 41 35 55 31 36 50 81 36 90 -11 7 5 56 35
112 18 32 19 68 2 68 -7 0 -18 -20 -25 -44z m-82 -221 c0 -8 -2 -15 -4 -15 -2
0 -6 7 -10 15 -3 8 -1 15 4 15 6 0 10 -7 10 -15z"/>
<path d="M4320 2107 c0 -8 9 -22 21 -33 21 -19 21 -19 17 11 -3 30 -38 51 -38
22z"/>
<path d="M4510 2109 c0 -5 5 -7 10 -4 6 3 10 8 10 11 0 2 -4 4 -10 4 -5 0 -10
-5 -10 -11z"/>
<path d="M4735 2080 c-21 -23 -122 -80 -141 -80 -17 0 -27 -17 -19 -31 5 -7
14 -4 27 8 11 10 28 17 38 15 10 -2 42 21 76 53 32 30 54 55 48 55 -6 0 -19
-9 -29 -20z"/>
<path d="M4490 2081 c0 -5 -3 -18 -6 -28 -5 -16 -4 -16 10 1 18 23 20 36 6 36
-5 0 -10 -4 -10 -9z"/>
<path d="M1565 1935 c0 -80 2 -145 6 -145 3 0 10 5 17 12 17 17 16 237 -2 261
-7 9 -15 17 -17 17 -2 0 -4 -65 -4 -145z"/>
<path d="M4449 1954 c-12 -15 -11 -16 7 -10 18 5 22 2 27 -24 9 -41 27 -38 27
4 0 19 6 37 13 39 6 3 -4 6 -24 6 -23 1 -42 -5 -50 -15z"/>
<path d="M4109 1833 c0 -10 -2 -25 -4 -33 -11 -50 -22 -136 -18 -142 2 -5 10
-8 18 -8 10 0 14 16 14 58 0 31 2 76 5 100 4 25 2 42 -4 42 -6 0 -10 -8 -11
-17z"/>
<path d="M4995 1788 c12 -39 25 -44 25 -10 0 22 -5 32 -16 32 -11 0 -14 -6 -9
-22z"/>
<path d="M5040 1771 c0 -10 11 -26 25 -35 14 -9 25 -23 25 -31 0 -8 9 -15 20
-15 24 0 26 13 5 30 -13 11 -13 15 -3 22 9 6 4 8 -15 4 -23 -5 -29 -2 -37 19
-11 30 -20 32 -20 6z"/>
<path d="M1565 1593 c1 -82 5 -173 10 -203 7 -50 7 -54 -8 -41 -9 7 -14 17
-11 23 8 13 -21 69 -50 97 -14 14 -26 33 -26 44 0 12 -5 17 -14 14 -7 -3 -18
-1 -24 5 -11 11 -60 -10 -81 -35 -6 -8 -28 -18 -49 -22 -32 -6 -215 -66 -292
-97 l-25 -10 40 -34 c22 -18 36 -34 30 -35 -25 -4 -73 -4 -73 1 1 6 -13 60
-16 60 -24 0 -237 -86 -264 -106 -91 -69 -235 -225 -310 -335 -43 -64 -141
-307 -162 -404 -10 -44 -24 -107 -33 -140 -26 -106 -49 -208 -58 -265 -5 -30
-12 -67 -15 -83 l-6 -27 66 0 c66 0 66 0 66 28 0 16 -9 37 -20 47 -11 10 -20
22 -20 28 0 5 15 -6 32 -24 18 -19 33 -43 33 -54 0 -18 8 -20 66 -23 l65 -3
11 48 c7 26 15 62 18 79 5 28 14 36 68 62 4 2 6 -2 5 -8 -2 -7 3 -15 10 -17
17 -7 15 32 -3 47 -16 13 -21 40 -7 40 5 0 18 -13 30 -29 18 -25 19 -31 7 -47
-8 -11 -15 -25 -15 -33 0 -8 -20 -36 -45 -62 -76 -81 -82 -79 217 -79 242 0
260 1 242 16 -17 15 -17 15 8 0 15 -9 49 -16 78 -16 50 0 50 0 44 28 -11 51
-15 62 -24 62 -11 0 -2 147 11 172 8 15 8 26 -1 43 -17 31 -5 121 21 164 12
19 37 40 64 52 41 18 47 19 74 4 17 -8 35 -24 41 -35 8 -15 17 -19 34 -14 32
8 98 -68 159 -185 39 -74 52 -90 62 -81 8 7 22 10 32 7 15 -4 15 -5 -3 -6 -44
-2 -59 -46 -21 -61 17 -7 18 -9 5 -9 -21 -1 -22 -17 -3 -51 8 -14 14 -40 15
-57 0 -22 5 -33 14 -33 19 0 22 29 18 163 -3 106 -4 109 -25 103 -21 -5 -21
-4 2 13 l24 18 -7 304 c-6 257 -10 306 -23 321 -15 17 -15 18 0 18 13 0 17 9
17 33 0 20 7 41 18 50 16 15 17 41 15 354 -2 186 -5 344 -8 351 -2 6 -11 12
-19 12 -11 0 -13 -26 -11 -147z m-155 -107 c0 -3 -4 -8 -10 -11 -5 -3 -10 -1
-10 4 0 6 5 11 10 11 6 0 10 -2 10 -4z m-80 -24 c0 -4 -8 -12 -19 -19 -10 -6
-32 -36 -49 -67 -17 -30 -38 -58 -45 -63 -8 -4 -17 -21 -21 -38 -10 -45 -11
-49 -19 -62 -4 -7 -3 -22 3 -33 7 -14 8 -20 0 -20 -6 0 -13 7 -16 15 -4 8 -12
15 -20 15 -18 0 -44 40 -44 67 0 18 6 23 24 23 14 0 28 -4 31 -10 13 -21 27
-10 21 16 -5 19 0 36 17 63 14 20 28 45 31 56 7 25 106 79 106 57z m45 -23
c11 -17 -1 -21 -15 -4 -8 9 -8 15 -2 15 6 0 14 -5 17 -11z m-25 -116 c0 -7 -5
-13 -11 -13 -5 0 -8 4 -5 8 3 5 -3 21 -14 37 -10 15 -16 35 -12 44 4 11 11 4
24 -24 9 -22 18 -46 18 -52z m-163 61 c3 -10 -5 -26 -21 -42 l-27 -27 13 29
c10 23 10 30 0 34 -19 6 -14 22 8 22 11 0 23 -7 27 -16z m190 10 c-3 -3 -12
-4 -19 -1 -8 3 -5 6 6 6 11 1 17 -2 13 -5z m73 -24 c8 -11 20 -20 27 -20 7 0
13 -7 13 -15 0 -8 -2 -15 -4 -15 -2 0 -11 -3 -20 -6 -10 -4 -20 5 -30 25 -26
49 -16 72 14 31z m-326 -12 c-13 -45 -18 -47 -47 -22 l-28 24 23 9 c42 18 60
14 52 -11z m406 8 c0 -2 -7 -7 -16 -10 -8 -3 -12 -2 -9 4 6 10 25 14 25 6z
m-138 -55 c-5 -13 -6 -13 -10 0 -3 7 -10 20 -16 28 -9 12 -8 12 11 1 13 -8 19
-20 15 -29z m-417 -11 c3 -5 -1 -10 -10 -10 -15 0 -75 -115 -75 -143 0 -15 19
4 34 35 6 13 23 24 36 26 24 3 24 3 6 -11 -14 -10 -16 -16 -7 -21 9 -6 9 -11
1 -21 -7 -9 -7 -23 2 -51 12 -34 11 -40 -6 -60 l-20 -21 -33 34 -32 35 -35
-21 c-18 -12 -40 -19 -48 -16 -7 3 -33 -11 -56 -31 -31 -26 -42 -31 -42 -19 0
9 11 27 24 40 23 23 23 24 6 51 -19 28 -17 54 5 54 7 0 15 -7 19 -15 6 -16 36
-21 36 -5 0 5 25 28 56 51 39 28 61 54 74 85 19 43 49 59 65 34z m245 -50 c-6
-11 -16 -20 -22 -20 -6 0 -3 9 7 20 10 11 20 20 22 20 2 0 -1 -9 -7 -20z
m-410 6 c0 -12 -33 -35 -42 -30 -5 3 1 12 14 19 29 16 28 16 28 11z m49 -13
c-16 -25 -69 -66 -76 -60 -6 6 67 77 80 77 4 0 2 -8 -4 -17z m621 -28 c0 -5
-5 -3 -10 5 -5 8 -10 20 -10 25 0 6 5 3 10 -5 5 -8 10 -19 10 -25z m-366 -42
c24 -23 40 -30 55 -26 24 6 26 1 10 -26 -11 -16 -15 -15 -47 21 -19 21 -37 36
-40 33 -3 -3 3 -15 14 -26 l19 -22 -35 7 c-32 6 -50 20 -50 41 0 5 5 4 12 -3
7 -7 17 -12 22 -12 6 0 0 7 -12 16 -12 8 -22 26 -22 40 0 23 1 23 21 7 11 -10
35 -32 53 -50z m194 49 c3 -9 -3 -13 -19 -10 -12 1 -24 9 -27 16 -3 9 3 13 19
10 12 -1 24 -9 27 -16z m269 -34 c-3 -7 -5 -2 -5 12 0 14 2 19 5 13 2 -7 2
-19 0 -25z m-360 6 c-3 -3 -12 -4 -19 -1 -8 3 -5 6 6 6 11 1 17 -2 13 -5z m88
-14 c-3 -5 -13 -10 -21 -10 -8 0 -14 5 -14 10 0 6 9 10 21 10 11 0 17 -4 14
-10z m-10 -30 c3 -6 -4 -10 -17 -10 -18 0 -20 2 -8 10 19 12 18 12 25 0z
m-624 -30 c20 -16 21 -19 7 -20 -25 0 -68 22 -62 31 9 15 30 10 55 -11z m385
1 c18 -11 42 -21 55 -23 l23 -3 -25 -17 c-34 -22 -110 -36 -91 -17 15 17 16
51 0 67 -18 18 3 14 38 -7z m362 13 c22 -6 22 -8 6 -25 -9 -11 -30 -19 -46
-19 -16 0 -39 -5 -50 -11 -25 -14 -68 -19 -68 -8 0 12 93 68 115 68 11 0 30
-2 43 -5z m74 -93 c0 -64 -4 -76 -30 -90 -15 -8 -17 -2 -17 54 0 48 5 68 19
84 11 12 21 19 24 16 3 -2 5 -31 4 -64z m-310 14 c-3 -30 -2 -30 40 -29 24 1
63 7 88 12 25 6 46 9 48 8 1 -2 -11 -19 -27 -39 -20 -26 -27 -44 -23 -63 5
-29 -33 -120 -54 -128 -17 -6 -18 5 -3 37 13 29 -4 134 -26 156 -13 13 -19 11
-52 -16 -21 -16 -49 -34 -63 -38 l-24 -8 27 32 c15 18 27 43 27 56 0 36 11 56
29 53 11 -2 15 -12 13 -33z m348 25 c0 -5 -2 -10 -4 -10 -3 0 -8 5 -11 10 -3
6 -1 10 4 10 6 0 11 -4 11 -10z m10 -41 c0 -5 -4 -9 -10 -9 -5 0 -10 7 -10 16
0 8 5 12 10 9 6 -3 10 -10 10 -16z m-643 -56 c-26 -14 -42 5 -32 38 6 19 7 19
30 -3 l24 -23 -22 -12z m94 4 c-17 -4 -38 -19 -47 -32 -26 -40 -38 -29 -13 13
33 56 49 65 72 45 18 -17 18 -18 -12 -26z m-166 13 c4 -6 1 -9 -6 -8 -20 4
-22 -28 -4 -46 9 -9 13 -16 8 -16 -16 0 -33 24 -33 45 0 32 21 47 35 25z
m-109 -39 c8 6 17 10 19 7 3 -3 -13 -19 -35 -37 -33 -26 -41 -29 -46 -16 -3 8
2 27 11 42 16 23 19 24 27 9 8 -14 13 -15 24 -5z m-172 -6 c19 -14 18 -15 -11
-15 -18 0 -33 6 -37 15 -7 20 22 19 48 0z m628 -17 c-7 -7 -12 -8 -12 -2 0 14
12 26 19 19 2 -3 -1 -11 -7 -17z m-617 -18 c3 -5 -1 -10 -9 -10 -11 0 -16 -9
-16 -30 0 -30 -21 -42 -35 -20 -3 6 -2 10 4 10 6 0 8 6 5 14 -5 14 20 46 36
46 5 0 12 -4 15 -10z m185 -13 c0 -2 -14 -16 -32 -33 -30 -28 -30 -17 0 19 13
15 32 23 32 14z m765 -31 c36 -13 37 -15 13 -16 -18 0 -31 -8 -39 -22 -11 -21
-11 -22 5 -9 19 16 35 6 18 -11 -20 -20 -14 -28 21 -29 l32 -1 -38 -8 c-54
-10 -187 -4 -200 9 -8 8 -8 11 0 11 6 0 9 9 6 20 -4 15 0 20 15 20 12 0 24 5
27 10 4 6 -6 10 -22 10 l-28 1 27 23 c23 21 31 22 75 15 26 -5 66 -15 88 -23z
m-1064 -40 c6 -6 9 -3 9 8 0 16 1 16 30 -1 24 -14 27 -19 15 -26 -8 -4 -15
-13 -15 -20 0 -13 -44 -37 -67 -37 -17 0 -16 11 1 35 10 14 11 26 5 44 -6 13
-7 32 -3 40 6 12 8 10 12 -9 2 -14 8 -29 13 -34z m329 30 c0 -2 -7 -7 -16 -10
-8 -3 -12 -2 -9 4 6 10 25 14 25 6z m90 -36 c0 -5 -4 -10 -10 -10 -5 0 -10 5
-10 10 0 6 5 10 10 10 6 0 10 -4 10 -10z m-140 -10 c0 -5 -5 -10 -11 -10 -5 0
-7 5 -4 10 3 6 8 10 11 10 2 0 4 -4 4 -10z m150 -40 c12 -23 12 -24 -3 -11
-10 7 -17 20 -17 29 0 18 3 16 20 -18z m39 -25 c0 -5 -6 -1 -14 9 -8 11 -15
27 -15 35 1 17 29 -26 29 -44z m123 38 c18 -16 24 -48 10 -57 -4 -2 -18 4 -31
13 -17 13 -22 23 -16 39 8 26 13 27 37 5z m-322 -14 c0 -6 -4 -7 -10 -4 -5 3
-10 11 -10 16 0 6 5 7 10 4 6 -3 10 -11 10 -16z m405 11 c3 -5 -1 -10 -9 -10
-9 0 -16 5 -16 10 0 6 4 10 9 10 6 0 13 -4 16 -10z m-287 -14 c-2 0 -14 -10
-27 -21 -16 -13 -21 -15 -16 -5 16 29 27 40 37 34 5 -3 8 -7 6 -8z m466 -5
c15 -16 15 -19 1 -24 -8 -4 -20 -18 -27 -32 -12 -27 -28 -33 -28 -11 0 8 -9
21 -21 29 -20 15 -20 15 7 36 33 26 46 26 68 2z m-688 -12 c4 -8 9 -8 17 0 16
16 27 13 24 -6 -3 -19 -56 -83 -68 -83 -4 0 -9 9 -12 21 -4 15 -2 19 9 15 8
-3 14 -1 14 4 0 6 -7 10 -15 10 -18 0 -18 5 -5 31 12 21 25 25 36 8z m239 -19
c9 -15 -45 -88 -84 -113 l-36 -22 38 -3 c38 -3 49 -18 22 -28 -8 -4 -31 -3
-50 0 -53 10 -45 49 18 89 16 10 38 34 49 53 20 35 32 41 43 24z m540 -27
c-13 -21 -29 -53 -36 -70 -6 -18 -14 -33 -18 -33 -12 0 -4 55 10 79 12 19 12
23 -3 32 -31 17 -20 29 27 29 l45 0 -25 -37z m-165 -22 c-1 -13 -3 -13 -15 3
-18 23 -20 14 -4 -16 10 -18 9 -20 -5 -15 -10 4 -15 3 -11 -3 4 -6 10 -24 15
-41 12 -40 -4 -29 -41 29 -37 58 -37 80 -1 84 30 4 62 -17 62 -41z m214 12
c-32 -47 -40 -55 -24 -23 12 24 40 60 46 60 2 0 -8 -17 -22 -37z m-744 23 c0
-3 -4 -8 -10 -11 -5 -3 -10 -1 -10 4 0 6 5 11 10 11 6 0 10 -2 10 -4z m-226
-23 c20 -17 20 -17 7 0 -12 15 -11 17 8 17 22 0 27 -9 50 -81 14 -45 14 -69 0
-69 -8 0 -8 -4 0 -14 8 -10 9 -16 1 -21 -5 -3 -10 -1 -10 4 0 6 -5 11 -11 11
-6 0 -8 -9 -4 -20 5 -14 2 -20 -9 -20 -20 0 -20 26 -1 64 15 29 11 76 -7 76
-6 0 -8 -7 -4 -15 7 -20 -22 -87 -35 -79 -6 3 -8 12 -5 20 3 8 2 14 -3 14 -4
0 -8 12 -8 28 0 15 -2 32 -3 37 -5 19 0 65 7 65 3 0 16 -8 27 -17z m561 7 c-3
-5 -10 -10 -16 -10 -5 0 -9 5 -9 10 0 6 7 10 16 10 8 0 12 -4 9 -10z m-365
-15 c10 -13 9 -15 -8 -15 -15 0 -20 5 -16 15 4 8 7 15 9 15 1 0 8 -7 15 -15z
m216 -92 c-16 -32 -33 -68 -39 -80 -7 -16 -7 -26 2 -37 7 -8 10 -20 6 -26 -5
-8 -12 -5 -21 8 -12 18 -11 27 12 78 17 39 24 68 20 92 -7 54 2 68 27 43 l21
-20 -28 -58z m381 55 c-3 -8 -6 -5 -6 6 -1 11 2 17 5 13 3 -3 4 -12 1 -19z
m208 12 c-3 -5 -11 -10 -16 -10 -6 0 -7 5 -4 10 3 6 11 10 16 10 6 0 7 -4 4
-10z m-415 -20 c9 -16 8 -18 -5 -14 -8 4 -15 12 -15 20 0 20 7 17 20 -6z
m-431 -36 c49 -36 61 -53 61 -84 0 -14 7 -35 15 -48 16 -21 16 -22 -12 -5 -36
20 -98 100 -107 136 -8 34 -2 34 43 1z m638 -6 c-3 -8 -6 -5 -6 6 -1 11 2 17
5 13 3 -3 4 -12 1 -19z m-240 -24 c7 -22 -28 -24 -50 -3 l-22 20 34 -3 c19 -2
36 -8 38 -14z m237 -9 c-4 -8 -8 -15 -10 -15 -2 0 -4 7 -4 15 0 8 4 15 10 15
5 0 7 -7 4 -15z m84 -10 c-3 -3 -9 2 -12 12 -6 14 -5 15 5 6 7 -7 10 -15 7
-18z m115 10 c-3 -9 -8 -14 -10 -11 -3 3 -2 9 2 15 9 16 15 13 8 -4z m-668
-45 c0 -7 -6 -15 -12 -17 -8 -3 -13 4 -13 17 0 13 5 20 13 18 6 -3 12 -11 12
-18z m-165 -57 c-1 -10 -6 -28 -14 -41 -11 -21 -14 -22 -25 -8 -8 9 -20 16
-28 16 -19 0 -29 30 -12 41 8 5 29 9 47 9 24 0 32 -4 32 -17z m390 -18 c-7 -9
-15 -13 -17 -11 -7 7 7 26 19 26 6 0 6 -6 -2 -15z m-90 -57 c0 -6 -7 -5 -15 2
-8 7 -15 17 -15 22 0 6 7 5 15 -2 8 -7 15 -17 15 -22z m-360 -17 c0 -9 -6 -23
-13 -32 -11 -15 -15 -13 -36 20 -23 34 -23 35 -2 17 16 -15 24 -17 33 -8 9 9
8 12 -5 12 -11 0 -14 5 -11 15 8 20 34 1 34 -24z m230 -13 c0 -5 -5 -8 -11 -8
-5 0 -8 4 -4 9 3 5 1 12 -5 16 -5 3 -10 14 -10 23 1 12 5 10 15 -8 8 -14 14
-28 15 -32z m-395 14 c5 -14 4 -15 -6 -4 -7 6 -20 12 -28 12 -11 0 -10 -4 5
-15 16 -12 16 -14 3 -15 -24 0 -41 24 -28 37 14 14 46 5 54 -15z m219 -6 c-3
-7 1 -16 9 -19 9 -3 17 2 20 14 7 25 27 25 27 0 0 -15 8 -21 38 -24 20 -2 5
-4 -35 -5 -72 -2 -73 -2 -73 23 0 14 4 25 10 25 5 0 7 -6 4 -14z m316 -25
c-12 -17 -26 -31 -32 -31 -6 0 -4 8 5 18 10 10 17 23 17 29 0 11 21 23 29 17
2 -1 -7 -17 -19 -33z m-551 -21 c5 0 4 -24 -1 -52 -5 -29 -10 -64 -12 -78 -1
-14 -10 -38 -20 -55 -9 -16 -14 -21 -11 -10 17 49 16 54 -8 70 -35 23 -40 42
-20 78 28 51 35 58 50 52 8 -3 18 -5 22 -5z m284 -49 c10 6 18 5 22 -1 3 -5
16 -10 29 -10 27 0 86 -28 86 -40 0 -5 -15 -4 -32 2 -18 5 -46 11 -63 12 -42
3 -95 33 -95 54 1 15 3 14 19 -4 12 -16 22 -19 34 -13z m-252 -4 c-10 -9 -11
-8 -5 6 3 10 9 15 12 12 3 -3 0 -11 -7 -18z m84 13 c3 -5 1 -10 -4 -10 -6 0
-11 5 -11 10 0 6 2 10 4 10 3 0 8 -4 11 -10z m377 -31 c-2 -19 -8 -38 -13 -44
-7 -7 -8 -5 -4 6 3 8 1 27 -4 41 -10 27 -5 41 13 35 6 -2 9 -19 8 -38z m-650
-11 c-6 -6 -7 0 -4 19 5 21 7 23 10 9 2 -10 0 -22 -6 -28z m389 -4 c12 -14 11
-16 -5 -13 -11 2 -21 10 -24 17 -5 17 13 15 29 -4z m-154 -51 c-3 -10 -5 -4
-5 12 0 17 2 24 5 18 2 -7 2 -21 0 -30z m218 -3 c3 -5 2 -10 -4 -10 -5 0 -13
5 -16 10 -3 6 -2 10 4 10 5 0 13 -4 16 -10z m288 -18 c-3 -14 -13 -22 -27 -22
-11 0 -32 -3 -46 -5 -14 -3 -6 2 18 11 24 9 46 23 49 31 8 21 13 10 6 -15z
m-652 -5 c-6 -8 -8 -17 -4 -20 3 -4 1 -7 -5 -7 -13 0 -16 22 -5 33 12 13 25 7
14 -6z m417 -40 c-22 -22 -78 -49 -78 -37 0 6 16 18 35 27 20 10 35 24 34 32
-3 30 2 36 13 14 8 -17 7 -25 -4 -36z m92 33 c0 -11 -7 -20 -15 -20 -7 0 -18
-6 -22 -14 -4 -7 -19 -19 -33 -26 -21 -11 -18 -5 15 33 45 51 55 56 55 27z
m140 -46 c0 -2 -7 -4 -15 -4 -8 0 -15 4 -15 10 0 5 7 7 15 4 8 -4 15 -8 15
-10z m-213 -48 c-19 -15 -22 -32 -7 -39 6 -3 5 -4 -2 -3 -21 4 -21 36 -1 51
10 7 20 11 23 8 3 -2 -3 -10 -13 -17z m-172 4 c-3 -5 -10 -10 -16 -10 -5 0 -9
5 -9 10 0 6 7 10 16 10 8 0 12 -4 9 -10z m-165 -4 c0 -3 -4 -8 -10 -11 -5 -3
-10 -1 -10 4 0 6 5 11 10 11 6 0 10 -2 10 -4z m220 -5 c0 -5 -7 -12 -16 -15
-14 -5 -15 -4 -4 9 14 17 20 19 20 6z m208 -18 c-10 -2 -26 -2 -35 0 -10 3 -2
5 17 5 19 0 27 -2 18 -5z m-203 -22 c-3 -6 -16 -11 -28 -11 -21 1 -21 1 3 15
27 14 36 13 25 -4z"/>
<path d="M838 1146 c-10 -7 -18 -18 -18 -25 0 -20 16 -12 28 14 13 29 13 29
-10 11z"/>
<path d="M1376 877 c3 -10 9 -15 12 -12 3 3 0 11 -7 18 -10 9 -11 8 -5 -6z"/>
<path d="M1428 841 c15 -26 18 -28 26 -13 5 9 17 22 25 29 13 10 9 12 -26 13
l-42 0 17 -29z"/>
<path d="M325 284 c-14 -35 -13 -54 4 -54 11 0 31 46 31 70 0 32 -18 23 -35
-16z"/>
<path d="M5151 1709 c12 -17 27 -33 34 -35 22 -9 -4 -73 -32 -81 l-24 -6 32
-33 c32 -33 32 -33 14 -60 l-17 -27 -27 67 c-19 50 -31 68 -49 73 -33 8 -42
-7 -26 -44 9 -21 21 -33 33 -33 26 0 36 -17 21 -35 -18 -22 -32 -18 -20 5 6
11 7 20 1 20 -5 0 -12 -8 -16 -17 -6 -17 -7 -17 -19 0 -13 16 -56 24 -56 10 0
-4 10 -17 22 -30 27 -29 13 -52 -21 -34 -23 13 -26 9 -11 -20 9 -16 7 -19 -9
-19 -26 0 -35 -15 -18 -32 8 -8 12 -27 9 -51 -4 -31 -8 -37 -28 -37 -16 0 -28
-8 -36 -25 -16 -36 -41 -34 -26 3 6 15 10 41 9 59 -1 18 4 35 12 40 20 12 28
52 12 61 -10 5 -8 18 11 56 13 28 24 57 24 67 0 9 7 19 15 23 10 3 15 19 15
44 0 39 -8 53 -46 85 -21 17 -23 17 -64 -10 -36 -24 -170 -187 -231 -283 -9
-14 -96 -106 -194 -205 -161 -163 -285 -292 -341 -356 -12 -13 -49 -51 -83
-84 -33 -32 -61 -65 -61 -72 0 -8 -10 -17 -22 -22 -13 -5 -46 -31 -75 -57
l-52 -49 -3 -109 -3 -109 63 -24 c75 -28 100 -43 172 -103 30 -25 78 -63 107
-83 59 -43 113 -101 113 -122 0 -13 26 -15 158 -15 140 1 155 2 138 15 -19 15
-19 15 4 40 13 14 26 23 29 20 2 -3 -5 -12 -17 -21 -12 -8 -20 -20 -17 -25 10
-14 25 -11 25 7 0 8 5 12 10 9 6 -3 10 1 10 9 0 9 5 16 10 16 16 0 12 -14 -10
-38 -11 -12 -20 -24 -20 -27 0 -13 55 -3 73 12 19 17 20 17 14 1 -6 -17 17
-18 404 -18 271 0 408 3 404 10 -3 6 -1 10 5 10 6 0 23 9 38 19 47 34 263 82
371 83 l71 0 0 59 c0 58 0 59 -29 59 -16 0 -41 6 -56 14 l-28 15 28 7 c15 4
35 2 44 -3 23 -14 41 8 41 48 0 31 -1 31 -35 26 -38 -6 -42 -1 -22 28 9 12 16
14 21 7 4 -6 13 -9 21 -5 11 4 15 22 15 71 l0 65 -21 -19 c-21 -19 -21 -19 -8
9 7 15 17 27 23 27 6 0 6 4 -1 11 -9 9 -20 3 -46 -25 -19 -20 -44 -36 -55 -36
-11 0 -24 -5 -27 -10 -3 -6 -15 -10 -25 -10 -19 0 -20 6 -5 103 3 15 0 27 -5
27 -6 0 -10 -4 -10 -10 0 -5 -7 -10 -16 -10 -8 0 -12 -4 -9 -10 3 -6 1 -10 -4
-10 -6 0 -11 9 -11 21 0 15 5 19 15 15 10 -4 19 3 25 18 5 13 15 28 22 32 10
6 11 5 1 -8 -16 -18 -7 -28 24 -28 13 0 23 -5 23 -11 0 -5 -4 -8 -10 -4 -5 3
-16 -5 -25 -19 -12 -19 -14 -32 -6 -58 l9 -33 1 40 c2 60 20 81 22 25 l2 -45
6 44 c3 25 12 46 19 49 10 3 10 -2 1 -21 -8 -18 -8 -30 0 -43 9 -17 11 -15 9
11 -2 37 8 56 30 54 45 -4 52 1 52 36 0 23 -5 35 -14 35 -9 0 -12 7 -9 20 3
11 10 20 15 20 5 0 2 8 -8 18 -16 16 -16 17 -1 20 10 2 17 13 17 26 0 19 -6
23 -32 23 -18 0 -39 -4 -45 -9 -19 -15 -43 -1 -42 24 l0 23 9 -22 c12 -29 21
-29 39 -2 12 20 10 24 -15 44 -15 12 -24 26 -21 32 4 5 -5 15 -18 21 -27 12
-35 52 -11 52 7 0 16 9 19 21 8 29 25 15 20 -14 -6 -29 20 -83 46 -97 32 -17
51 -2 51 40 0 32 -4 39 -22 42 -12 2 -29 15 -38 31 -13 24 -13 30 0 55 9 15
26 28 38 30 18 3 22 10 22 43 0 55 -21 51 -88 -16 -50 -52 -55 -55 -68 -38 -7
10 -14 30 -14 45 0 14 -6 28 -12 31 -7 2 -10 7 -7 11 3 4 21 -7 39 -24 18 -16
29 -23 26 -14 -8 20 9 51 35 65 17 8 23 7 35 -8 14 -17 15 -16 8 7 -6 24 -6
24 13 8 25 -23 33 -23 33 2 0 17 -7 20 -51 20 -28 0 -60 -5 -71 -11 -19 -10
-95 -14 -129 -7 -8 2 -14 -5 -14 -17 0 -17 -48 -69 -107 -114 -32 -24 -21 23
15 66 18 22 41 58 51 82 12 26 24 40 33 37 14 -6 41 41 63 108 23 70 50 108
74 102 19 -4 19 -4 4 8 -11 8 -15 21 -12 37 2 13 1 18 -2 11 -5 -10 -9 -10
-22 0 -13 11 -14 11 -8 0 9 -15 -10 -42 -31 -42 -20 0 -99 -55 -151 -104 -30
-29 -44 -52 -49 -78 -8 -52 -24 -63 -54 -38 -13 10 -18 19 -12 20 7 0 22 19
34 41 17 34 18 43 7 50 -8 5 -15 2 -20 -10 -12 -33 -27 -33 -63 0 -36 33 -43
57 -24 76 6 6 13 49 15 96 2 46 6 100 8 120 4 32 1 38 -27 56 -18 11 -43 21
-57 23 -14 2 -30 7 -37 11 -15 10 -65 -2 -57 -14 3 -5 26 -15 52 -22 49 -15
58 -30 21 -35 -16 -3 -19 -8 -14 -25 4 -12 11 -50 17 -85 8 -49 16 -67 34 -79
29 -19 25 -27 -29 -54 -23 -12 -68 -48 -100 -81 -32 -33 -61 -57 -64 -54 -3 3
11 21 32 40 24 23 35 41 31 51 -4 11 -1 15 11 13 10 -2 19 5 21 16 2 11 10 25
17 32 7 7 16 29 19 49 6 29 3 39 -14 53 -16 13 -21 29 -21 75 -2 54 -4 61 -45
102 -33 34 -51 45 -74 45 l-31 0 22 -31z m-275 -106 c-5 -13 -2 -13 21 2 l28
18 -27 -30 c-16 -16 -28 -36 -28 -45 0 -34 -12 -48 -34 -42 -17 4 -27 -1 -40
-20 -9 -14 -23 -26 -31 -26 -8 0 -22 -18 -31 -40 -9 -22 -20 -40 -25 -40 -14
0 -11 11 8 32 21 23 9 36 -18 19 -12 -7 -24 -9 -27 -5 -4 4 -1 9 6 11 6 3 12
11 12 19 0 9 11 14 29 14 20 0 36 9 49 25 11 14 25 25 31 25 6 0 11 13 11 28
0 17 10 38 25 52 14 13 25 31 25 39 1 13 2 13 11 -2 6 -10 8 -25 5 -34z m-64
-208 c-36 -101 -47 -121 -71 -128 -18 -4 -17 -1 6 52 14 31 30 59 36 63 6 4 8
10 5 14 -4 3 4 21 17 39 14 17 25 38 26 46 0 8 3 9 5 4 2 -6 -8 -46 -24 -90z
m374 30 c-22 -17 -36 -19 -36 -7 0 14 12 22 34 22 21 -1 21 -1 2 -15z m-12
-70 c-4 -8 -11 -15 -16 -15 -6 0 -5 6 2 15 7 8 14 15 16 15 2 0 1 -7 -2 -15z
m516 10 c0 -11 -24 -55 -31 -55 -17 0 -19 35 -3 47 18 13 34 17 34 8z m-305
-42 c-4 -10 -11 -36 -16 -58 -7 -36 -4 -44 23 -78 28 -36 30 -42 23 -94 -6
-52 -8 -54 -23 -38 -13 14 -14 18 -4 22 9 3 2 12 -18 25 -18 10 -39 17 -47 14
-12 -5 -13 1 -6 36 4 24 7 71 6 106 -2 59 -1 62 22 62 13 0 27 5 30 10 10 17
18 11 10 -7z m251 -5 c4 -6 -5 -22 -22 -36 -26 -22 -29 -23 -32 -8 -4 17 24
56 39 56 4 0 11 -5 15 -12z m-192 -49 c-3 -5 -7 -28 -8 -50 -4 -46 -13 -60
-26 -39 -15 23 -12 74 7 110 16 33 16 33 25 11 4 -13 5 -27 2 -32z m-856 21
c-7 -10 -14 -18 -15 -16 -6 6 9 36 18 36 5 0 4 -9 -3 -20z m1131 -10 c-11 -30
-23 -38 -34 -20 -7 12 16 50 32 50 9 0 9 -7 2 -30z m-595 -25 c-10 -15 -28
-31 -41 -36 -17 -6 -23 -14 -19 -27 4 -13 0 -17 -19 -18 -21 -2 -23 1 -14 17
5 10 14 19 19 19 6 0 10 6 10 13 1 13 70 70 77 63 3 -2 -3 -16 -13 -31z m-361
-2 c3 -5 -2 -25 -10 -45 -10 -25 -22 -38 -34 -38 -24 0 -24 15 2 56 20 33 33
41 42 27z m175 -57 c8 -9 -10 -26 -27 -26 -18 0 -41 18 -41 33 0 9 58 2 68 -7z
m560 -47 c-3 -9 -12 0 -22 21 l-18 35 22 -21 c12 -12 20 -28 18 -35z m-625 12
c14 -24 15 -61 1 -61 -18 0 -54 27 -54 41 0 53 27 64 53 20z m669 -3 c-7 -7
-12 -8 -12 -2 0 14 12 26 19 19 2 -3 -1 -11 -7 -17z m-1030 -10 c-7 -7 -12 -8
-12 -2 0 14 12 26 19 19 2 -3 -1 -11 -7 -17z m215 -10 c-3 -8 -6 -5 -6 6 -1
11 2 17 5 13 3 -3 4 -12 1 -19z m1029 -12 c8 -21 -45 -95 -72 -102 -40 -10
-49 7 -15 28 16 11 36 35 43 54 12 35 34 45 44 20z m-1172 -20 c-3 -9 -12 -16
-20 -16 -11 0 -10 4 4 18 20 22 25 21 16 -2z m-99 3 c11 -17 -1 -21 -15 -4 -8
9 -8 15 -2 15 6 0 14 -5 17 -11z m555 -31 c-12 -10 -28 -18 -34 -18 -7 0 -20
-15 -29 -32 -8 -18 -16 -26 -16 -17 -1 9 15 37 35 63 30 40 38 45 51 34 13
-11 12 -14 -7 -30z m450 22 c0 -5 -4 -10 -10 -10 -5 0 -10 5 -10 10 0 6 5 10
10 10 6 0 10 -4 10 -10z m-640 -19 c13 -26 13 -61 -1 -61 -18 0 -46 42 -41 62
6 24 29 23 42 -1z m340 15 c0 -3 -4 -8 -10 -11 -5 -3 -10 -1 -10 4 0 6 5 11
10 11 6 0 10 -2 10 -4z m-660 -46 c-11 -20 -30 -28 -30 -12 0 11 22 32 32 32
5 0 4 -9 -2 -20z m175 -24 c-8 -39 -16 -44 -34 -22 -8 10 -6 20 10 40 26 33
32 29 24 -18z m-75 -6 c-12 -16 -23 -30 -26 -30 -2 0 2 14 11 30 9 17 20 30
26 30 6 0 1 -13 -11 -30z m590 15 c-7 -9 -15 -13 -17 -11 -7 7 7 26 19 26 6 0
6 -6 -2 -15z m239 -34 c-8 -11 -19 -23 -26 -25 -19 -8 -16 24 4 46 22 24 39 8
22 -21z m-1124 19 c3 -5 1 -10 -4 -10 -6 0 -11 5 -11 10 0 6 2 10 4 10 3 0 8
-4 11 -10z m483 -2 c16 -16 15 -28 -2 -28 -7 0 -16 9 -19 20 -6 23 3 26 21 8z
m928 -41 c-3 -13 -15 -36 -27 -51 -17 -21 -24 -24 -35 -15 -20 17 -18 25 18
70 33 42 55 40 44 -4z m32 12 c-6 -16 -12 -28 -15 -26 -7 7 8 57 18 57 4 0 3
-14 -3 -31z m-378 -21 c0 -51 -9 -88 -21 -88 -5 0 -9 18 -9 40 0 41 -7 49 -28
28 -9 -9 -15 -9 -24 0 -16 16 27 62 59 62 20 0 23 -5 23 -42z m-580 -21 c0
-18 -2 -19 -10 -7 -13 20 -13 43 0 35 6 -3 10 -16 10 -28z m-469 -20 c-12 -12
-21 -16 -21 -9 0 16 34 50 39 39 2 -5 -6 -19 -18 -30z m-72 -9 c1 -5 -3 -8 -9
-8 -5 0 -10 12 -9 28 0 24 1 25 9 7 5 -11 9 -23 9 -27z m397 15 c-2 -10 -7
-32 -11 -49 -4 -20 -15 -35 -30 -42 -13 -6 -31 -22 -40 -36 -9 -13 -22 -27
-30 -30 -18 -7 23 64 48 83 10 7 16 19 13 27 -9 25 12 64 34 64 16 0 20 -5 16
-17z m842 -41 c-25 -26 -49 -55 -54 -64 -13 -24 -38 -7 -30 20 14 41 105 112
125 95 3 -2 -16 -25 -41 -51z m-718 -19 c0 -7 -9 -13 -21 -13 -15 0 -19 4 -15
16 3 9 6 23 6 32 1 15 3 14 15 -2 8 -11 15 -26 15 -33z m230 21 c0 -8 -4 -12
-10 -9 -5 3 -10 13 -10 21 0 8 5 12 10 9 6 -3 10 -13 10 -21z m906 -1 c-7 -7
-26 7 -26 19 0 6 6 6 15 -2 9 -7 13 -15 11 -17z m-269 0 c5 -13 -113 -141
-121 -132 -3 3 5 18 19 33 13 14 36 47 51 72 25 42 43 52 51 27z m133 -23 c0
-15 -7 -20 -25 -20 -24 0 -34 18 -18 33 15 15 43 7 43 -13z m-1475 0 c3 -5 1
-10 -4 -10 -6 0 -11 5 -11 10 0 6 2 10 4 10 3 0 8 -4 11 -10z m607 -26 c-4
-34 -5 -35 -19 -14 -15 21 -12 28 22 50 1 0 -1 -16 -3 -36z m-192 -3 c-5 -11
-15 -23 -22 -27 -7 -5 -8 -2 -3 7 21 37 44 55 25 20z m267 -13 c-3 -8 -6 -5
-6 6 -1 11 2 17 5 13 3 -3 4 -12 1 -19z m730 -5 c5 -15 -49 -67 -91 -90 -27
-14 -28 -14 -22 2 3 9 9 28 12 41 7 25 60 65 83 61 8 -1 16 -8 18 -14z m-1442
-29 c-9 -14 -14 -32 -11 -40 7 -19 -18 -18 -34 1 -10 12 -10 15 4 15 8 0 18
11 22 25 3 14 13 25 21 25 13 0 13 -4 -2 -26z m210 16 c3 -6 -1 -7 -9 -4 -12
4 -16 0 -16 -16 0 -22 -56 -100 -73 -100 -5 0 2 15 17 33 15 17 33 47 42 65
14 32 28 40 39 22z m272 -15 c-4 -8 -11 -15 -17 -15 -7 0 -7 6 0 21 13 23 26
19 17 -6z m315 -10 c10 -22 9 -29 -10 -47 -17 -18 -23 -19 -36 -8 -20 16 -20
30 0 58 20 29 32 28 46 -3z m-702 -5 c0 -5 -7 -7 -15 -4 -8 4 -12 10 -9 15 6
11 24 2 24 -11z m566 -23 c-13 -39 -26 -58 -26 -39 0 13 32 83 36 79 2 -2 -3
-19 -10 -40z m391 -32 c-17 -36 -37 -39 -37 -7 0 28 30 66 43 53 8 -8 6 -21
-6 -46z m69 15 c-14 -17 -26 -27 -26 -22 0 12 43 62 49 57 2 -2 -8 -18 -23
-35z m389 30 c-3 -5 -1 -10 4 -10 15 0 14 -37 -1 -46 -7 -5 -20 -9 -29 -9 -8
-1 -33 -15 -55 -32 -64 -50 -97 -54 -51 -5 21 22 21 24 4 37 -16 12 -15 14 10
30 25 17 27 17 14 1 -11 -13 -11 -20 -2 -29 9 -9 21 -1 54 31 38 39 67 56 52
32z m-1167 -37 c-2 -22 -9 -38 -18 -41 -8 -3 -12 -1 -8 3 4 4 3 16 -3 27 -7
14 -7 23 2 34 20 24 30 16 27 -23z m-573 1 c-15 -16 -35 -11 -35 8 0 5 7 8 15
4 8 -3 15 -1 15 5 0 6 5 7 10 4 6 -4 4 -12 -5 -21z m715 6 c0 -5 -4 -10 -9
-10 -6 0 -13 5 -16 10 -3 6 1 10 9 10 9 0 16 -4 16 -10z m393 -10 c-3 -12 -8
-19 -11 -16 -5 6 5 36 12 36 2 0 2 -9 -1 -20z m739 -2 c-7 -7 -12 -8 -12 -2 0
14 12 26 19 19 2 -3 -1 -11 -7 -17z m-1667 -8 c10 -17 -45 -80 -71 -80 -12 0
-26 -4 -29 -10 -3 -5 -13 -10 -21 -10 -12 0 -14 7 -9 33 10 45 24 59 52 52 16
-4 25 -1 29 10 7 17 39 20 49 5z m785 -9 c0 -4 -7 -8 -15 -8 -8 0 -15 6 -15
13 0 8 6 11 15 8 8 -4 15 -9 15 -13z m-261 0 c11 -7 19 -76 10 -86 -2 -2 -15
6 -29 17 -22 18 -23 21 -7 29 13 8 15 14 7 30 -11 20 -4 24 19 10z m1139 -54
c-4 -31 -32 -33 -46 -2 -17 38 -14 43 8 15 l20 -25 0 35 c1 29 2 32 11 17 6
-10 9 -28 7 -40z m-1590 -23 c-7 -27 -7 -39 2 -44 14 -9 22 -130 8 -130 -5 0
-18 21 -30 46 -24 56 -21 130 8 151 24 18 24 18 12 -23z m696 20 c3 -9 6 -29
6 -46 0 -25 -3 -29 -20 -25 -11 3 -17 1 -14 -4 11 -19 -27 -21 -48 -3 -12 11
-18 13 -14 7 5 -9 -2 -13 -23 -13 -18 0 -31 5 -32 13 0 10 -2 10 -6 0 -8 -21
-20 -15 -27 12 -8 31 -26 33 -19 3 4 -19 3 -20 -6 -8 -14 19 -14 60 -1 60 5 0
27 -16 47 -35 l38 -35 17 22 c10 13 18 17 18 11 0 -7 7 -13 15 -13 12 0 13 4
5 19 -19 37 -12 51 24 51 22 0 36 -6 40 -16z m446 2 c0 -2 -8 -10 -17 -17 -16
-13 -17 -12 -4 4 13 16 21 21 21 13z m-905 -16 c-3 -5 -16 -15 -28 -21 -22
-12 -22 -12 -3 10 19 21 43 30 31 11z m65 -9 c0 -5 -7 -12 -16 -15 -14 -5 -15
-4 -4 9 14 17 20 19 20 6z m-139 -45 c22 19 22 19 11 -1 -5 -11 -19 -28 -30
-38 -20 -18 -20 -18 -27 11 -3 17 -13 33 -21 36 -8 3 -14 11 -14 18 0 6 13 -1
30 -17 29 -28 30 -28 51 -9z m927 5 c-13 -15 -24 -27 -26 -26 -6 6 30 55 40
55 5 0 -1 -13 -14 -29z m-623 10 c3 -5 1 -12 -5 -16 -5 -3 -10 -15 -10 -27 0
-17 -2 -18 -15 -8 -18 15 -19 32 -3 48 14 14 25 15 33 3z m-586 -20 c0 -3 -4
-14 -8 -24 -6 -17 -8 -17 -26 3 -16 17 -17 23 -6 30 15 8 42 3 40 -9z m-22
-57 c9 -24 -2 -26 -30 -4 -14 11 -36 20 -49 20 -22 1 -22 1 -4 15 16 12 22 12
48 -1 16 -8 32 -22 35 -30z m453 37 c0 -6 -4 -13 -10 -16 -5 -3 -10 1 -10 9 0
9 5 16 10 16 6 0 10 -4 10 -9z m-584 -32 c19 -22 19 -22 -3 -10 -13 6 -23 16
-23 21 0 15 5 12 26 -11z m1371 -5 c-9 -9 -28 6 -21 18 4 6 10 6 17 -1 6 -6 8
-13 4 -17z m289 14 c4 -6 3 -8 -4 -4 -6 3 -13 -3 -17 -14 -3 -11 -10 -20 -15
-20 -5 0 -4 11 2 25 12 27 23 31 34 13z m-1654 -49 c47 -40 57 -42 101 -24 14
6 17 3 14 -14 -4 -23 -17 -41 -17 -23 0 7 -17 12 -43 12 -37 0 -49 6 -80 37
-35 34 -45 53 -30 53 4 0 29 -18 55 -41z m562 26 c25 -19 15 -29 -34 -31 -40
-2 -42 2 -17 34 12 16 27 15 51 -3z m446 -33 c0 -9 -7 -6 -20 11 -11 14 -20
29 -20 33 0 4 9 -1 20 -11 11 -10 20 -25 20 -33z m216 30 c-7 -12 -18 -64 -17
-87 0 -11 -6 -30 -14 -42 -8 -12 -15 -32 -15 -45 0 -16 -3 -19 -11 -11 -9 9
-8 28 6 75 17 64 41 118 51 118 3 0 3 -4 0 -8z m191 2 c-3 -3 -12 -4 -19 -1
-8 3 -5 6 6 6 11 1 17 -2 13 -5z m298 -43 c-7 -33 -17 -36 -74 -25 -34 7 -34
22 0 19 12 -1 33 9 46 23 29 29 37 24 28 -17z m-1642 22 c-7 -2 -21 -2 -30 0
-10 3 -4 5 12 5 17 0 24 -2 18 -5z m1525 -12 c3 -8 -1 -12 -9 -9 -7 2 -15 10
-17 17 -3 8 1 12 9 9 7 -2 15 -10 17 -17z m-1384 -17 c3 -8 2 -12 -4 -9 -6 3
-10 10 -10 16 0 14 7 11 14 -7z m172 -9 c18 -13 18 -14 1 -15 -10 0 -32 -7
-48 -16 l-31 -15 23 30 c26 36 28 36 55 16z m1029 -4 c-3 -6 -11 -11 -17 -11
-6 0 -6 6 2 15 14 17 26 13 15 -4z m-682 -38 c3 -27 13 -77 22 -113 19 -78 26
-160 14 -160 -5 0 -11 10 -14 23 -2 12 -13 60 -24 106 -11 47 -18 88 -15 92 3
5 -2 21 -10 37 -10 19 -11 33 -5 45 16 29 26 19 32 -30z m382 7 c4 -6 -3 -25
-15 -43 -12 -18 -18 -23 -14 -12 4 11 7 30 7 43 -1 23 11 29 22 12z m-1064
-31 c6 -12 6 -19 0 -19 -5 0 -15 -2 -23 -5 -8 -3 -21 7 -30 23 l-17 28 30 -4
c16 -2 34 -13 40 -23z m49 3 c0 -15 -2 -15 -10 -2 -13 20 -13 33 0 25 6 -3 10
-14 10 -23z m1586 -18 c-42 -36 -52 -38 -41 -5 4 13 15 21 30 21 12 0 26 7 29
16 4 9 10 14 14 9 4 -4 -11 -22 -32 -41z m89 -6 c-10 -37 -18 -45 -51 -56 -21
-7 -46 -19 -55 -27 -21 -20 -40 -19 -32 1 3 8 23 22 44 31 26 10 41 23 45 39
6 22 38 54 55 54 4 0 1 -19 -6 -42z m-190 3 c-3 -6 -24 -20 -46 -32 -22 -11
-49 -29 -59 -39 -11 -11 -20 -16 -20 -12 0 5 18 25 40 45 22 19 40 33 40 31 0
-3 10 2 22 10 23 16 35 15 23 -3z m-219 -46 c-9 -9 -16 -21 -16 -27 0 -6 -3
-8 -6 -5 -4 4 1 18 10 33 10 14 20 23 23 20 3 -3 -2 -12 -11 -21z m-1100 -4
c5 -5 18 -11 29 -13 19 -5 19 -5 2 -13 -13 -5 -24 -1 -38 14 -19 20 -13 31 7
12z m378 -7 c9 -8 16 -23 16 -31 0 -9 -1 -14 -2 -12 -2 2 -14 16 -27 32 -26
28 -14 39 13 11z m-388 -69 c3 -19 10 -38 15 -41 5 -3 9 -15 8 -27 0 -16 -5
-10 -17 20 -9 23 -20 45 -24 49 -11 11 -10 34 2 34 5 0 12 -16 16 -35z m1079
25 c3 -5 1 -10 -4 -10 -6 0 -11 5 -11 10 0 6 2 10 4 10 3 0 8 -4 11 -10z
m-1255 -11 c0 -5 -5 -7 -11 -3 -6 3 -15 0 -20 -7 -7 -11 -9 -10 -9 4 0 10 8
17 20 17 11 0 20 -5 20 -11z m1170 -10 c-7 -11 -14 -18 -17 -15 -3 3 0 12 7
21 18 21 23 19 10 -6z m210 17 c0 -2 -8 -10 -17 -17 -16 -13 -17 -12 -4 4 13
16 21 21 21 13z m-1134 -128 c4 -21 10 -38 14 -38 5 0 6 10 3 23 -4 18 -2 19
6 6 15 -22 26 -109 12 -89 -6 8 -11 23 -11 33 0 9 -7 17 -15 17 -8 0 -15 9
-15 19 0 11 -9 41 -20 68 l-20 48 20 -25 c11 -14 23 -42 26 -62z m891 60 c-3
-8 -6 -5 -6 6 -1 11 2 17 5 13 3 -3 4 -12 1 -19z m563 6 c0 -14 -3 -14 -15 -4
-8 7 -15 14 -15 16 0 2 7 4 15 4 8 0 15 -7 15 -16z m-650 -35 c-11 -36 -20
-49 -20 -28 0 25 12 59 20 59 5 0 5 -14 0 -31z m264 16 c-4 -8 -12 -15 -20
-15 -20 0 -17 18 4 23 9 3 18 5 19 6 1 0 0 -6 -3 -14z m161 -25 c27 -29 15
-32 -20 -4 -20 16 -25 24 -14 24 9 0 24 -9 34 -20z m-94 -30 c6 0 8 7 5 17 -5
13 0 11 18 -6 28 -26 27 -43 0 -20 -15 12 -16 11 -10 -9 5 -15 3 -22 -6 -22
-20 0 -35 13 -42 38 -4 12 -12 20 -17 17 -5 -3 -6 1 -3 9 5 12 9 11 25 -5 10
-10 24 -19 30 -19z m-861 -11 c14 -25 6 -49 -14 -49 -23 0 -40 38 -25 56 16
19 26 18 39 -7z m-115 -19 c3 -5 1 -10 -4 -10 -6 0 -11 5 -11 10 0 6 2 10 4
10 3 0 8 -4 11 -10z m119 -64 c-10 -8 -21 -12 -24 -10 -5 6 21 24 34 24 6 0 1
-6 -10 -14z"/>
<path d="M5343 1164 c-8 -22 15 -44 26 -25 10 16 4 41 -10 41 -5 0 -12 -7 -16
-16z"/>
<path d="M4625 100 c3 -5 8 -10 11 -10 2 0 4 5 4 10 0 6 -5 10 -11 10 -5 0 -7
-4 -4 -10z"/>
<path d="M4990 1685 c0 -29 15 -41 24 -19 9 24 7 31 -9 38 -11 4 -15 -1 -15
-19z"/>
<path d="M3747 1682 c-15 -16 -17 -44 -17 -203 0 -186 4 -209 37 -209 10 0 12
9 7 35 -5 27 -3 34 7 30 12 -4 14 24 12 157 -1 90 -4 172 -6 182 -5 27 -20 30
-40 8z"/>
<path d="M5503 1655 c11 -7 25 -11 33 -8 22 8 6 23 -24 23 -25 -1 -26 -2 -9
-15z"/>
<path d="M5576 1649 c6 -10 106 -39 131 -38 19 1 -6 10 -89 33 -26 7 -45 9
-42 5z"/>
<path d="M4085 1608 c-11 -43 3 -86 24 -74 7 5 7 13 -1 26 -9 14 -9 22 0 33
10 11 9 17 -2 27 -13 10 -16 8 -21 -12z"/>
<path d="M5614 1595 c-12 -9 -32 -13 -54 -10 l-35 5 32 -11 c43 -15 47 -41 12
-70 -16 -13 -29 -29 -29 -36 0 -7 -12 -20 -26 -30 -43 -30 -64 -52 -64 -68 0
-17 20 -1 110 88 32 31 65 57 73 57 8 0 18 7 21 16 4 11 14 15 31 12 14 -3 25
-2 25 3 0 11 -57 22 -71 13 -9 -5 -10 1 -5 20 7 30 6 31 -20 11z"/>
<path d="M5813 1575 c49 -20 90 -35 93 -33 6 7 -113 58 -149 64 -18 3 8 -11
56 -31z"/>
<path d="M4200 1531 c-7 -13 -7 -22 0 -26 5 -3 10 -3 11 2 0 4 2 16 4 26 4 22
-2 22 -15 -2z"/>
<path d="M5475 1540 c-3 -5 1 -10 9 -10 8 0 18 5 21 10 3 6 -1 10 -9 10 -8 0
-18 -4 -21 -10z"/>
<path d="M5812 1519 c19 -7 25 -15 22 -27 -5 -15 -4 -15 6 1 15 23 4 37 -28
36 l-27 -1 27 -9z"/>
<path d="M5466 1498 c-3 -13 -6 -32 -6 -43 1 -20 3 -18 61 53 7 9 3 12 -19 12
-22 0 -31 -6 -36 -22z"/>
<path d="M4081 1493 c0 -10 -3 -30 -7 -45 -5 -21 -3 -28 8 -28 11 0 14 7 10
26 -3 15 1 29 7 33 9 6 8 11 -3 20 -12 10 -15 9 -15 -6z"/>
<path d="M2520 1486 c0 -34 11 -46 31 -33 25 16 24 22 -6 35 -20 9 -25 9 -25
-2z"/>
<path d="M5606 1471 c11 -10 74 -32 74 -25 0 5 -65 34 -77 34 -4 0 -3 -4 3 -9z"/>
<path d="M4036 1401 c-17 -19 -17 -21 -2 -36 9 -9 16 -23 16 -31 0 -8 5 -12
11 -8 6 3 8 17 4 31 -4 16 -2 22 5 18 14 -9 13 8 -3 29 -12 16 -14 16 -31 -3z"/>
<path d="M5850 1414 c0 -4 11 -22 25 -39 l24 -33 -54 -7 c-61 -7 -73 -27 -30
-47 29 -13 30 -15 9 -57 -9 -18 -14 -35 -11 -38 10 -10 72 17 85 37 14 23 3
26 -31 9 -22 -12 -22 -12 -3 10 13 14 31 21 58 21 l38 0 0 55 c0 51 -2 55 -27
61 -16 4 -40 13 -55 21 -16 7 -28 10 -28 7z"/>
<path d="M2446 1357 c-16 -12 -16 -14 2 -30 19 -17 20 -17 24 13 5 33 0 36
-26 17z"/>
<path d="M4038 1215 c5 -29 8 -31 15 -11 3 8 0 19 -7 25 -10 9 -12 6 -8 -14z"/>
<path d="M2450 1168 c-15 -21 -17 -28 -6 -19 16 13 41 51 33 51 -2 0 -14 -15
-27 -32z"/>
<path d="M2450 1091 c0 -6 4 -13 10 -16 6 -3 7 1 4 9 -7 18 -14 21 -14 7z"/>
<path d="M2699 1034 c-23 -25 -23 -26 -2 -13 13 7 25 19 27 26 8 19 2 16 -25
-13z"/>
<path d="M3960 892 c0 -12 19 -26 26 -19 2 2 -2 10 -11 17 -9 8 -15 8 -15 2z"/>
</g>
</svg>
